<mxfile host="Electron" modified="2023-07-24T11:32:22.348Z" agent="Mozilla/5.0 (Windows NT 10.0; Win64; x64) AppleWebKit/537.36 (KHTML, like Gecko) draw.io/21.6.5 Chrome/114.0.5735.243 Electron/25.3.1 Safari/537.36" etag="oymiuNfQCO2W4Cw2FYuU" version="21.6.5" type="device" pages="2">
  <diagram id="445c0b5v68OWT8RsxW02" name="Структура docker compose">
    <mxGraphModel dx="1051" dy="304" grid="0" gridSize="10" guides="1" tooltips="1" connect="1" arrows="1" fold="1" page="0" pageScale="1" pageWidth="827" pageHeight="1169" math="0" shadow="0">
      <root>
        <mxCell id="0" />
        <mxCell id="1" parent="0" />
        <mxCell id="SDCqc7lHkiElPCPP4OB7-79" value="" style="rounded=0;whiteSpace=wrap;html=1;shadow=0;labelBackgroundColor=none;sketch=0;fontSize=12;strokeWidth=0;" parent="1" vertex="1">
          <mxGeometry x="170" y="660" width="700" height="400" as="geometry" />
        </mxCell>
        <mxCell id="SDCqc7lHkiElPCPP4OB7-45" value="" style="group" parent="1" vertex="1" connectable="0">
          <mxGeometry x="204.77" y="970" width="165.23" height="60" as="geometry" />
        </mxCell>
        <mxCell id="SDCqc7lHkiElPCPP4OB7-41" value="" style="strokeColor=#dddddd;shadow=1;strokeWidth=1;rounded=1;absoluteArcSize=1;arcSize=2;" parent="SDCqc7lHkiElPCPP4OB7-45" vertex="1">
          <mxGeometry width="165.23" height="60" as="geometry" />
        </mxCell>
        <mxCell id="SDCqc7lHkiElPCPP4OB7-36" value="&lt;font color=&quot;#000000&quot;&gt;&amp;nbsp; MySQL&lt;/font&gt;&lt;br&gt;&amp;nbsp; Database" style="shape=image;verticalLabelPosition=middle;labelBackgroundColor=none;verticalAlign=middle;aspect=fixed;imageAspect=0;image=https://cdn.worldvectorlogo.com/logos/mysql-6.svg;labelPosition=right;align=left;fontColor=#999999;html=1;" parent="SDCqc7lHkiElPCPP4OB7-45" vertex="1">
          <mxGeometry x="8.129999999999995" y="10" width="40.61" height="40" as="geometry" />
        </mxCell>
        <mxCell id="SDCqc7lHkiElPCPP4OB7-84" style="edgeStyle=orthogonalEdgeStyle;rounded=1;orthogonalLoop=1;jettySize=auto;html=1;exitX=0;exitY=0.5;exitDx=0;exitDy=0;fontSize=12;fontColor=#000000;startArrow=none;startFill=0;endArrow=classicThin;endFill=1;strokeColor=#3399FF;strokeWidth=1;" parent="1" source="SDCqc7lHkiElPCPP4OB7-46" edge="1">
          <mxGeometry relative="1" as="geometry">
            <mxPoint x="530" y="800" as="targetPoint" />
            <Array as="points">
              <mxPoint x="640" y="850" />
              <mxPoint x="640" y="800" />
            </Array>
          </mxGeometry>
        </mxCell>
        <mxCell id="SDCqc7lHkiElPCPP4OB7-46" value="" style="strokeColor=#dddddd;shadow=1;strokeWidth=1;rounded=1;absoluteArcSize=1;arcSize=2;" parent="1" vertex="1">
          <mxGeometry x="670" y="820" width="165.23" height="60" as="geometry" />
        </mxCell>
        <mxCell id="SDCqc7lHkiElPCPP4OB7-47" value="&lt;font color=&quot;#000000&quot;&gt;Celery / python&lt;/font&gt;&lt;br&gt;Task Queue" style="sketch=0;dashed=0;connectable=0;html=1;fillColor=#5184F3;strokeColor=none;shape=mxgraph.gcp2.hexIcon;prIcon=app_engine;part=1;labelPosition=right;verticalLabelPosition=middle;align=left;verticalAlign=middle;spacingLeft=5;fontColor=#999999;fontSize=12;" parent="SDCqc7lHkiElPCPP4OB7-46" vertex="1">
          <mxGeometry y="0.5" width="44" height="39" relative="1" as="geometry">
            <mxPoint x="5" y="-19.5" as="offset" />
          </mxGeometry>
        </mxCell>
        <mxCell id="SDCqc7lHkiElPCPP4OB7-49" value="" style="shape=image;verticalLabelPosition=bottom;labelBackgroundColor=default;verticalAlign=top;aspect=fixed;imageAspect=0;image=https://codeguida.com/media/post_title/celery-logo.png;fontSize=18;" parent="SDCqc7lHkiElPCPP4OB7-46" vertex="1">
          <mxGeometry x="6.7900000000000205" y="10" width="40" height="40" as="geometry" />
        </mxCell>
        <mxCell id="SDCqc7lHkiElPCPP4OB7-54" style="edgeStyle=orthogonalEdgeStyle;rounded=0;orthogonalLoop=1;jettySize=auto;html=1;exitX=0.5;exitY=0;exitDx=0;exitDy=0;fontSize=12;fontColor=#000000;startArrow=none;startFill=0;endArrow=oval;endFill=1;strokeColor=#3333FF;strokeWidth=1;" parent="1" source="SDCqc7lHkiElPCPP4OB7-11" edge="1">
          <mxGeometry relative="1" as="geometry">
            <mxPoint x="287" y="650" as="targetPoint" />
          </mxGeometry>
        </mxCell>
        <mxCell id="SDCqc7lHkiElPCPP4OB7-59" style="edgeStyle=orthogonalEdgeStyle;rounded=0;orthogonalLoop=1;jettySize=auto;html=1;fontSize=12;fontColor=#000000;startArrow=none;startFill=0;endArrow=classicThin;endFill=1;strokeColor=#3399FF;" parent="1" source="SDCqc7lHkiElPCPP4OB7-11" edge="1">
          <mxGeometry relative="1" as="geometry">
            <mxPoint x="287.385" y="790" as="targetPoint" />
          </mxGeometry>
        </mxCell>
        <mxCell id="SDCqc7lHkiElPCPP4OB7-11" value="" style="strokeColor=#dddddd;shadow=1;strokeWidth=1;rounded=1;absoluteArcSize=1;arcSize=2;" parent="1" vertex="1">
          <mxGeometry x="204.77" y="680" width="165.23000000000002" height="60" as="geometry" />
        </mxCell>
        <mxCell id="SDCqc7lHkiElPCPP4OB7-12" value="&lt;font color=&quot;#000000&quot;&gt;Nginx / Web server&lt;/font&gt;&lt;br&gt;Frontend" style="sketch=0;dashed=0;connectable=0;html=1;fillColor=#5184F3;strokeColor=none;shape=mxgraph.gcp2.hexIcon;prIcon=app_engine;part=1;labelPosition=right;verticalLabelPosition=middle;align=left;verticalAlign=middle;spacingLeft=5;fontColor=#999999;fontSize=12;" parent="SDCqc7lHkiElPCPP4OB7-11" vertex="1">
          <mxGeometry y="0.5" width="44" height="39" relative="1" as="geometry">
            <mxPoint x="5" y="-19.5" as="offset" />
          </mxGeometry>
        </mxCell>
        <mxCell id="SDCqc7lHkiElPCPP4OB7-13" value="" style="shape=image;verticalLabelPosition=middle;labelBackgroundColor=default;verticalAlign=middle;aspect=fixed;imageAspect=0;image=data:image/svg+xml,PHN2ZyB4bWxucz0iaHR0cDovL3d3dy53My5vcmcvMjAwMC9zdmciIGlkPSJMYXllcl8xIiBkYXRhLW5hbWU9IkxheWVyIDEiIHZpZXdCb3g9IjAgMCA2My4zNiA3My40NCI+PGRlZnM+PHN0eWxlPi5jbHMtMXtmaWxsOiMwMDk2Mzk7fS5jbHMtMntmaWxsOiNmZmY7fS5jbHMtM3tmaWxsOiM5OTk7fTwvc3R5bGU+PC9kZWZzPjx0aXRsZT5OR0lOWC1oZXgtc291cmNlLVJHQi0wMjwvdGl0bGU+PHBhdGggY2xhc3M9ImNscy0xIiBkPSJNLjUwMjcyLDU0LjcyMWEzLjYzNywzLjYzNywwLDAsMCwxLjM2NjQxLDEuMzU1OTNMMjkuODIxOTIsNzIuMjE1NDlsLjAwMDg3LS4wMDA4N2EzLjY2NzkzLDMuNjY3OTMsMCwwLDAsMy43MTUyOSwwTDYxLjQ5MTc1LDU2LjA3NjA2YTMuNjY1NjgsMy42NjU2OCwwLDAsMCwxLjg1Njc3LTMuMjE2MTlWMjAuNTgyNzVsLS4wMDA4Ny0uMDAwODdBMy42NjY4NSwzLjY2Njg1LDAsMCwwLDYxLjQ5LDE3LjM2NDgxTDMzLjUzNjM0LDEuMjI2MjVWMS4yMjUzOGEzLjY2MzEzLDMuNjYzMTMsMCwwLDAtMy43MTI2OCwwdi4wMDA4N0wxLjg3MDg3LDE3LjM2NDgxQTMuNjY1MywzLjY2NTMsMCwwLDAsLjAxMjM1LDIwLjU4MTg4bC0uMDAwODcuMDAwODdWNTIuODU5ODdBMy42NDQyNiwzLjY0NDI2LDAsMCwwLC41MDE4NSw1NC43MjEiLz48cGF0aCBjbGFzcz0iY2xzLTIiIGQ9Ik0yMi43MzAxNSw0OS4wMDhhMy41OTQ4OCwzLjU5NDg4LDAsMCwxLTcuMTg5NzYsMGwuMDAwODguMDAwODguMDAzNDktMjQuNjc3MjdjMC0xLjkxMTc0LDEuNjg5MjQtMy40OTI3OSw0LjA4MTc1LTMuNDkyNzlhNi4zOTI4Miw2LjM5MjgyLDAsMCwxLDQuOTAwMjEsMi4xOTFMMjUuNjEzLDI0LjMyOTg5LDQwLjYzMTI0LDQyLjMwMjUzVjI0LjQzMkg0MC42Mjk1YTMuNTk0ODgsMy41OTQ4OCwwLDAsMSw3LjE4OTc1LDBoLS4wMDA4N2wtLjAwMzQ5LDI0LjY3NTUyYzAsMS45MTE3NS0xLjY5MDExLDMuNDkyNzktNC4wODE3NSwzLjQ5Mjc5YTYuMzg4NTcsNi4zODg1NywwLDAsMS00LjkwMDIxLTIuMTkxTDIyLjcyODQsMzEuMTM2NTlWNDkuMDA4OVoiLz48cGF0aCBjbGFzcz0iY2xzLTMiIGQ9Ik01OS45NzQ3OCw2Ni4wMzQxaC40NTkzNFY2NS4wMTFoLjM2MzM1YTEuMDM2NzQsMS4wMzY3NCwwLDAsMSwuNTEwMzcuMDg1MjIuNjM5MTcuNjM5MTcsMCwwLDEsLjI0MjU1LjU5NTEzdi4yMDk3NmwuMDEwMjkuMDc4MmEuMTU3ODEuMTU3ODEsMCwwLDEsLjAwNy4wMzI3OGMuMDAyMzQuMDEyNjQuMDAzMjguMDE2MzguMDEwMy4wMjJoLjQyNTYzbC0uMDE1NDYtLjAyOWEuMjk4NjMuMjk4NjMsMCwwLDEtLjAyMDYtLjEzM2MtLjAwNjA5LS4wNzM1MS0uMDA2MDktLjEzNjI1LS4wMDYwOS0uMTk0MzF2LS4xOTM4NWEuNzQxOTQuNzQxOTQsMCwwLDAtLjE0MjM0LS40MDU0OS42NjEyOS42NjEyOSwwLDAsMC0uNDUzMjUtLjI1NDcyLDEuMTE4ODQsMS4xMTg4NCwwLDAsMCwuMzc3ODctLjEyMjY4LjU2NjczLjU2NjczLDAsMCwwLC4yNTM3OC0uNTE1MDUuNjQwMDguNjQwMDgsMCwwLDAtLjQwMTc0LS42NjA2OCwxLjk5OTA2LDEuOTk5MDYsMCwwLDAtLjcxMjE5LS4wOTMxOGgtLjkwODg0Wm0xLjMwNjM3LTEuNDAyODJhMS4xODgyLDEuMTg4MiwwLDAsMS0uNDM2ODYuMDU4MDZoLS40MTAxN1Y2My43NDIxaC4zOTE0NGExLjE1NTUsMS4xNTU1LDAsMCwxLC41NTIuMTAxNjEuMzk0MTMuMzk0MTMsMCwwLDEsLjE3Mjc4LjM3OTc0LjQwMDg3LjQwMDg3LDAsMCwxLS4yNjkyNC40MDc4M20xLjMzNC0xLjU2MzlhMi4zMDc5MiwyLjMwNzkyLDAsMCwwLTEuNjg3LS42ODk3MSwyLjM3MywyLjM3MywwLDAsMCwwLDQuNzQ2LDIuMzc3MjQsMi4zNzcyNCwwLDAsMCwxLjY4Ny00LjA1NjNtLS4yNDExNC4yMzU1MmExLjk0MzU5LDEuOTQzNTksMCwwLDEsLjU5NTU5LDEuNDQzNTYsMi4wMzkyMiwyLjAzOTIyLDAsMCwxLTMuNDg1NTIsMS40NTA1OSwyLjAxMzExLDIuMDEzMTEsMCwwLDEtLjU5Mjc5LTEuNDUwNTlBMi4wNDYyNywyLjA0NjI3LDAsMCwxLDYwLjkyODEsNjIuNjk3YTEuOTQ2LDEuOTQ2LDAsMCwxLDEuNDQ1OTEuNjA1ODkiLz48L3N2Zz4=;labelPosition=left;align=right;fontSize=18;" parent="SDCqc7lHkiElPCPP4OB7-11" vertex="1">
          <mxGeometry x="9.34" y="10" width="34.52" height="40" as="geometry" />
        </mxCell>
        <mxCell id="SDCqc7lHkiElPCPP4OB7-55" style="edgeStyle=orthogonalEdgeStyle;rounded=0;orthogonalLoop=1;jettySize=auto;html=1;exitX=0.5;exitY=0;exitDx=0;exitDy=0;fontSize=12;fontColor=#000000;startArrow=none;startFill=0;endArrow=oval;endFill=1;strokeColor=#3333FF;" parent="1" source="SDCqc7lHkiElPCPP4OB7-23" edge="1">
          <mxGeometry relative="1" as="geometry">
            <mxPoint x="287.44444444444446" y="800.0000000000002" as="targetPoint" />
          </mxGeometry>
        </mxCell>
        <mxCell id="SDCqc7lHkiElPCPP4OB7-60" style="edgeStyle=orthogonalEdgeStyle;rounded=0;orthogonalLoop=1;jettySize=auto;html=1;exitX=0.5;exitY=1;exitDx=0;exitDy=0;fontSize=12;fontColor=#000000;startArrow=none;startFill=0;endArrow=classicThin;endFill=1;strokeColor=#3399FF;" parent="1" source="SDCqc7lHkiElPCPP4OB7-23" edge="1">
          <mxGeometry relative="1" as="geometry">
            <mxPoint x="287.44444444444446" y="940" as="targetPoint" />
          </mxGeometry>
        </mxCell>
        <mxCell id="SDCqc7lHkiElPCPP4OB7-70" style="edgeStyle=orthogonalEdgeStyle;rounded=1;orthogonalLoop=1;jettySize=auto;html=1;exitX=1;exitY=0.5;exitDx=0;exitDy=0;fontSize=12;fontColor=#000000;startArrow=none;startFill=0;endArrow=classicThin;endFill=1;strokeColor=#3399FF;" parent="1" source="SDCqc7lHkiElPCPP4OB7-23" edge="1">
          <mxGeometry relative="1" as="geometry">
            <mxPoint x="516" y="800" as="targetPoint" />
            <Array as="points">
              <mxPoint x="410" y="850" />
              <mxPoint x="410" y="800" />
            </Array>
          </mxGeometry>
        </mxCell>
        <mxCell id="SDCqc7lHkiElPCPP4OB7-23" value="" style="strokeColor=#dddddd;shadow=1;strokeWidth=1;rounded=1;absoluteArcSize=1;arcSize=2;" parent="1" vertex="1">
          <mxGeometry x="204.77" y="820" width="165.23" height="60" as="geometry" />
        </mxCell>
        <mxCell id="SDCqc7lHkiElPCPP4OB7-24" value="&lt;font color=&quot;#000000&quot;&gt;Django / python&lt;/font&gt;&lt;br&gt;Backend" style="sketch=0;dashed=0;connectable=0;html=1;fillColor=#5184F3;strokeColor=none;shape=mxgraph.gcp2.hexIcon;prIcon=app_engine;part=1;labelPosition=right;verticalLabelPosition=middle;align=left;verticalAlign=middle;spacingLeft=5;fontColor=#999999;fontSize=12;" parent="SDCqc7lHkiElPCPP4OB7-23" vertex="1">
          <mxGeometry y="0.5" width="44" height="39" relative="1" as="geometry">
            <mxPoint x="5" y="-19.5" as="offset" />
          </mxGeometry>
        </mxCell>
        <mxCell id="SDCqc7lHkiElPCPP4OB7-28" value="" style="shape=image;verticalLabelPosition=bottom;labelBackgroundColor=default;verticalAlign=top;aspect=fixed;imageAspect=0;image=data:image/png,iVBORw0KGgoAAAANSUhEUgAAAgEAAAJxCAYAAADbxGGgAAAgAElEQVR4nO3dd3Re9Z3n8Y8edVnVklXckC3bcsWmY7AdTHESAkkgk8YOJISQQ7JANruZJLs5ezKzObM7O8wyE8LkBAZIIKEaQoJNCCaAC7j3IstWsSTbKlbvXdo/ZAkX2Va5z/O79/7er3N0Hunafu4nCfh+8v39nnvDysvL+wUgJH7w8e+1t7bUdAyc419v+FstSbvMdIygWPnWP5qOgGG45Z+5iKysLNMZAGvEpiYpoi/edAycIy0jXVnp/vy7MCKFf97cyC3/zAVMBwCsEmY6AAB8ghIAhBKLbwBchBIAAIClKAEAAFiKEgAAgKUoAQAAWIoSAACApSgBAABYihIAAIClKAEAAFiKEgCEEncMBOAilAAglLhjIAAXoQQAAGApSgAAAJaiBAAAYClKAAAAlqIEAABgKUoAAACWogQAocR9AgC4CCUACCXuEwDARSgBAABYihIAAIClKAEAAFiKEgAAgKUoAQAAWIoSAACApSgBAABYihIAAIClKAFAKHHHQAAuQgkAQok7BgJwEUoAAACWogQAAGApSgAAAJaiBAAAYClKAAAAlqIEAABgKUoAAACWogQAAGApSgAAAJaiBAAAYClKAAAAlqIEAABgKUoAAACWogQAAGApSgAAAJaiBAAAYClKAAAAlqIEAABgKUoAAACWogQAAGApSgAAAJaiBAAAYClKAAAAlqIEAABgKUoAAACWogQAAGApSgAAAJaiBAAAYClKAAAAlqIEAABgKUoAAACWogQAAGApSgAAAJaiBAAAYClKAAAAlqIEAABgKUoAAACWogQAAGApSgAAAJaiBAAAYClKAAAAlqIEAABgKUoAAACWogQAAGApSgAAAJaiBAChFGY6AAB8ghIAhFK/6QAA8AlKAAAAlqIEAABgKUoAAACWogQAAGApSgAAAJaiBAAAYClKAAAAlqIEAABgKUoAAACWogQAAGApSgAAAJaiBAAAYClKAAAAlqIEAABgKUoAAACWogQAAGApSgAAAJaiBAAAYClKAAAAlqIEAABgKUoAAACWogQAAGApSgAAAJaiBAAAYKkI0wEAAMFzTfpMqf8SvylMA79nuNczXeh9LvT7L+Tc97nUeUPpUv9d+QwlAAB87Dc3fcd0BLgYywEAAFiKEgAAgKUoAQAAWIoSAACApSgBAABYihIAAIClKAEAAFiKEgAAgKUoAQAAWIoSAACApSgBAABYihIAhJLJB6MAwDkoAQAAWIoSAACApSgBAABYihIAAIClKAEAAFiKEgAAgKUoAQAAWIoSAACApSgBAABYihIAAIClKAEAAFiKEgAAgKUoAQAAWIoSAACApSgBAABYihIAAIClKAEAAFiKEgAAgKUoAQAAWIoSAACApSgBAABYihIAAIClKAEAAFiKEgAAgKUoAQAAWIoSAACApSgBAABYihIAAIClKAEAAFiKEgAAgKUoAQAAWIoSAACApSJMB4AdOnq7Vd5ar+qOZnX0dKujt0sdvd1q7+lWR+/pn4e+71b7OT939HR98mtn/JkwhSkyEK6IQPhZr5Fh4YoIBM7+tbBwJUbFKikq7vRr7Nk/R579MwD4HSUAjqjvbFVFW4PK2xpU0Vo/8NrWoPLWelW0Nai+szVIZ+5Xb2+f1Nvt+DvnJGZoVlK6chIzzvoeAPyCEoAROfOCPtyFviMIF2HTipqqVNRUJenAWcfPLQfzUrI0PT7NTEgAGAdKAM5T0lytg3UndKDuuPbXHteBuuOmI7nKcOUgKSpWiyZO06LUaboqbYauz5hlLiAAjBAlwHKVbY3KbyhXXv3JoYt+Y1eb6Vie09jVro8qj+qjyqNDx6ZOmKhFqdN0U9Y83TR5niZERhtMCADnowRYpKGrTfn15cpvKFd+Q4X215aprKXWdCzfOtFapxOtdXqnbN/QsWvSZxpMBABnowT42P7a48qrP3n6ol+ug3UnTEey3o5TxaYjAMAQSoDPbD9VpM2VBdpcVaC8+pOm4wAAXIwS4HE9fb3aXFWgzZUF+rjqqI41VZuOBADwCEqAB7V0d+jjygJtrjqqzZUFqmhrMB0JAOBBlACPqO5o1ubKo0Oj/uDdfAcAYAtKgIsdb6n9ZNRfedSXN+QBAJhDCXChjyqPaG3pXq0t3WM6CgBL/OrQX01HwAV8b8GtQXtvSoBLdPZ2D1z4y/bwMTIARlAE3CeYBUCiBBh3vKVWa0v3aG3ZXpU215iOAwCwCCXAkJ3VxwYu/qV7WOsHABhBCQixP5ft1drSvdpYkW86CgDAcpSAEKhub9LasoGNfkcaKkzHAQBAEiUgqPLqT2pN6W6tLd3L5/oBAK5DCQiCspZavVSwWS8XblFvf5/pOAAADIsS4KDajha9XLhFLxVuVlNXu+k4AABcFCXAAZ293XqpcIteLtyi8tZ603EAABgRSsA4rS7eppcLtuhoY6XpKAAAjAolYIz+XLZPLxdu1p6aUtNRAAAYE0rAKG2syNfLhVu0qeKI6SgAAIwLJWCEdteU6KWCzfrL8f2mowAA4AhKwCVUtjXq13nv6/Xi7aajAADgKErARbx7fL+eOLiOB/sAAHyJEjCM9p4uPXFwnX539CPTUQAACBpKwDm2VhXqiYPvan/tcdNRAAAIKkrAGX6d976ePPie6RgAAIQEJUADD/r55cF1fOwPAGAV60vAy4Vb9MSBdWru5l7/AAC7WFsCTrbW65cH12lt6R7TUQAAMMLKEvDnsr164sA6nWitMx0FAABjrCoBXX09+pd9f9ZLBZtNRwEAwDhrSkBZS41+vuuP2lJVaDoKAACuYEUJ2HaqSD/f9UeVNFebjgIAgGv4vgT8qWSXfr7rj+ro7TYdBQAAV/F1Cfh13gd68uA60zEAAHAl35aAv9/5B578BwDARfiyBDy08Tl9VHnUdAwAAFzNVyWgr79fd737bypqqjIdBQAA1/NNCShrqdWX1z2h1p5O01EAAPAEX5SAzVUF+s6GZ03HAADAUzxfAlYXbdM/7HrTdAwAADzH0yXgmcPr9W8H/mI6BgAAnhQwHWCs1pbuoQAAADAOniwBO6uL9ZNtr5qOAQCAp3muBOQ3lOubHz5tOgYAAJ7nqRJQ2lKjv1n3hOkYAAD4gmdKwKn2Jt397i9MxwAAwDc8UQJaujt0//qn1cmTAAEAcIzrS0Bvf5++//HvVNpcYzoKAAC+4voS8N+3vaptp4pMxwAAwHdcXQJ+tvMN/blsn+kYAAD4kmtLwD/tWaM3ineYjgEAgG+5sgT84sC7+n3Bx6ZjAADga64rAauLtuk/Dn9oOgYAAL7nqhJwqO6EHt/P8wAAAAgF15SA/v5+Pb7/HTV3t5uOAgCAFVxTAh7f/w4fBQQAIIRcUQLeKdun3xzZaDoGAABWMV4CSptr9Pj+d0zHAADAOsZLwOP731FFW4PpGAAAWMdoCXgq7wO9f/KQyQgAAFjLWAnYVHFEvzy4ztTpAQCwnpESUNvRwj4AAAAMM1ICHt//jgoaK02cGgAAnBbyEvBiwWb9qWRXqE8LAADOEdISsKemRP/KMgAAAK4Q0hLwq0Pvq6O3O5SnBAAAFxCyEvBS4RZtqSoI1ekAAMAlhKQEVLY16Df5G0JxKgAAMEIhKQHP5W/kroAAALhM0EvAlqoCvVS4OdinAQAAoxT0EvBcPk8HBADAjYJaAtgMCACAewWtBLAZEAAAdwtaCWAzIAAA7haUEsBmQAAA3C8oJYDNgAAAuJ/jJYDNgAAAeIOjJYDNgAAAeEeEk2/GZkCYkhGbpMy4JCVGxSo+IkYTIqMHviLOfo2PiFF0eIS6+nrU1dt7+rVn4PWMY23dnapoazjrCwD8xrEScKypWquLtzn1dsBZshPSNCMhXZlxScqKS1ZmXJIyB19jkxUICwt6hnNLQVFjlY42VupIQ0XQzw0AweBYCVhTulvdfb1OvR0slp2QpvkpU7UgZYrmpUzRvJTJSoiMMR1LWXHJyopLHvbXjjRUDBWCow0VOtJYodqOlhAnBIDRcaQENHW3a03pHifeChZanDpdN2bO0byUyZqbPPmCF1o3y03OUm5ylu687IqhY8db6rSlqkBbqgq0uapArd2dBhMCwPkcKQFrS/awZopRuWbSTN2YOWfo4u9H0+Inalr8dfpKznVq6+nSnpoS7akp0c7qY9pZfcx0PABwpgQwBcBIDF70b8ycrZzEDNNxQiouImroP78kHaw7od01JfrnvWsNJwNgs3GXgHXHD+hA3XEnssCHJkbH6/PZV+jOy65UbnKW6TiusXDiVLX3dJmOAcBy4y4BTAEwnFlJGfr8ZVfqzuwrNSkmwXQcAMAwxlUCdteU6MPyPKeywAeuTc/RnZddoc9nX6nwsKA+qRoAME7jKgFrSnY7lQMed2Vatu6fu0IrJ883HQUAMEJjLgGlLTUsBUBpMQm6P3eFvpG73HQUAMAojbkErC3Zo47ebiezwGO+knOd7s/9lKbFTzQdBQAwBmMqAa09nUwBLHZ9xizdn7ti6ONuAABvGlMJWFu6Ryda65zOAg/44eLb9c3cFaZjAAAcMKYSsKaEKYBtcpOz9N8W364bMmabjgIAcMioS8BfTx7S3trSYGSBS9152RX64eLPKTUm3nQUAICDRl0C3jt+IBg54FKM/wHAv0ZVAuo6W7SxIj9YWeAiOYkZ+vEVdzD+BwAfG1UJ2FCer+bujmBlgUvkJGbo8Rvuse4hPwBgm1GVgI0VR4KVAy6Rk5ihX6+4X1lxyaajAACCbMQloLKtkaUAn8tJzNDrqx5VZCDcdBQAQAiMuARsrMhXJ3cI9K2cxAz96TM/MB0DABBCI37MG1MA/1o0cRoFAAAsNKISUNZSqw2UAF+alzJZL9/6n03HAAAYMKISsLEiX/39/cHOghBLj03U6tseNR0DAGDIyEpAOVMAvwmEBfTqrQ+bjgEAMOiSJaCoqUqbqwpCkQUh9LubH9Kk2ETTMQAABl2yBGxgCuA7j13/dS1OnW46BgDAsEuWAG4Q5C8/uPwz+uz0xaZjAABc4KIl4HB9uXZWF4cqC4Js5eR5emDuTaZjAABc4qIlgHsD+EdsRJQeWnCL6RgAABehBFjiu/Nv0YKUqaZjAABc5IIloKS5Wvtqy0KZBUFyQ+ZsfWvup0zHAAC4zAVLwKH6k6HMgSAJDwvou/NZBgAAnO+CJSCvjhLgB99dcIuuSMs2HQMA4EIXmQScCGUOBMHCiVP1EFMAAMAFDFsCOnt7WA7wga/mXG86AgDAxYYtAftry9Te0xXqLHDQFWnZumvG1aZjAABcbNgScLDueKhzwGFfYwoAALiEYUsASwHedl16jj532RLTMQAALkcJ8KGvzmIKAAC4tPNKQEVbg4631JrIAgcsz8rVqqmLTMcAAHjAeSVgP3cJ9DQ+EQAAGKlhSgCbAr1qfsoU3TR5nukYAACPOL8E8MkAz7p16kLTEQAAHnJeCeBOgd4UFham2ygBAIBROKsEHKw7oa7eHlNZMA63TV2oGQmTTMcAAHjIWSVgfx2bAr3qtilMAQAAo3N2CWBToCdNj09lKQAAMGpnlYCjjZWmcmAcbpu6UBGBcNMxAAAec1YJ4CZB3nTLlAWmIwAAPGioBFR3NPPkQA/KSczQ5anTTccAAHjQUAlgCuBN16XnmI4AAPCooRJQRgnwpOszKAEAgLFhEuBhiVGxupn9AACAMaIEeNi1LAUAAMaB5QAP42FBAIDxYBLgYbdMmW86AgDAwwKS1NjVrsaudtNZMArXTJqphMhY0zEAAB4WkJgCeNG8lMmmIwAAPC4gsR/Ai+alTDEdAQDgcUwCPGo+kwAAwDhRAjwoKhChnMQM0zEAAB7HcoAHsR8AAOAEJgEexH4AAIATAu09XaruaDadA6PAfgAAgBMCTAG8Z14ykwAAwPgFajtbTGfAKLEnAADghEB7T7fpDBiF9NhE0xEAAD4R6OilBHhJRmyS6QgAAJ8IdPR2mc6AUWASAABwCssBHkMJAAA4hUmAx7AcAABwSqCDSYCnMAkAADgl0M7GQE+hBAAAnMJygMewHAAAcArLAR7DJAAA4BSWAzwkPCygCZHRpmMAAHwi0NHDcoBXRAbCTUcAAPgIkwAPiQxEmI4AAPARbhvsIVHhTAIAAM5hOcBDWA4AADiJ5QAPYTkAAOAk7hPgIUwCAABO4j4BHhJFCQAAOIjlAA9hOQAA4KSA6QAYOZYDAABOCsSER5rOAAAADKAEeEh3X6/pCAAAHwnERlACvKKrr8d0BACAjwRiwqNMZ8AIMQkAADiJ5QAP6WYSAABwECXAQ7p6mQQAAJwTiGFPgGcwCQAAOIlJgId0sScAAOCgQCwbAz2DSQAAwEksB3gIkwAAgJNYDvCQ/v5+1Xe2mo4BAPAJSoDHVLU3mo4AAPCJQEwEewK8pKqtyXQEAIBPMAnwGCYBAACnUAI8hhIAAHAKDxDyGEoAAMApPEDIY9gTAABwCssBHsMkAADgFG4W5DGUAACAUwKT41JMZ8AotHZ3qrqdJQEAwPgFJk+gBHjNofqTpiMAAHwgECYpKy7ZdA6MQh4lAADggIAkTWEa4CmUAACAEwKSxJKAt7AcAABwwkAJYHOgp1S3N7E5EAAwbqcnAewJ8BqmAQCA8WIS4FHsCwAAjBd7AjyKEgAAGC9KgEdtP1VkOgIAwOMCkhQRFlBGbKLpLBiFtp4u7a0pNR0DAOBhgcFvmAZ4z+aqAtMRAAAe9kkJYHOg51ACAADjwSTAw/bWlKqyjacKAgDG5owSwL0CvGh7NRsEAQBjw3KAx+04VWw6AgDAo1gO8Dg+KggAGCsmAR53srVe7x4/YDoGAMCDhkpAdHiEZiVmmMyCMVp3Yr/pCAAADwqc+cPitOmmcmAc3j1+QEVNVaZjAAA85qwSsCT1MlM5ME4sCQAARuusEnB56jRTOTBOlAAAwGidVQJyEjOUEBlrKgvGoaipiiIAYMz61W86AgwInHtgCfsCPIsNggDGqq+fEmCj80rAYvYFeNa7xw/oYN0J0zEAeFA/JcBK55WAhROnmMgBh7xatNV0BAAe1MdygJXOKwHzkikBXvbmsZ3aXVNiOgYAj2E5wE7nlYDUmHjlJmeZyAKHvFrINADA6FAC7HReCZCky1PZHOhlb5ft1daqQtMxAHgIewLsNGwJmJ88OdQ54DD2BgAYDfYE2GnYEjAvhX0BXvfeiYPaWJFvOgYAj2A5wE7DTwJSpiglekKos8Bhz+Vv5F9sACPS399nOgIMGLYEBMLCtCBlaqizwGE7q4v174feMx0DgAewHGCnYUuAJM1PYV+AHzyV94E2Vx41HQOAyzE1tNMFSwD7AvzjyUPvqaO323QMAC5GCbDTBUvAtekzlRQVF8osCJL9tcf17wdZFgBwYTxAyE4XLAFJUXFanpUbyiwIot8c2agPy/NMxwDgUkwC7HTBEiBJyzLnhCoHQuCJA+t0srXOdAwALkQJsNNFS8DyrFyWBHykoLFSP9v5B9MxALgQJcBOFy0BLAn4z9aqQv1k2yumYwBwGfYE2OmiJUBiScCP1pbu1b/se9t0DAAu0sfNgqx0yRLAkoA//fbIJn1Yfth0DAAuwXKAnS5ZAlgS8K9HPnpezd0dpmMAcAHuGGinS5YAiSUBP1v65t+rsavNdAwAhvEoYTuNqASwJOBvN/7xf6moqcp0DAAGsRxgpxGVAJYE/O8Lf/lXbasqNB0DgCGUADuNqARILAnY4IENz2ht6R7TMQAYwJ4AO424BLAkYIefbHtVvz2yyXQMACHGngA7jbgEsCRgj3/Z97Z+tvMN1XW2mI4CIERYDrDTiEuAxJKATd4o3qFvr39G67mXAGCFPnGzIBuNqgQsz8pVWkxCsLLAZY42Vurhj57XLw+uMx0FQJCxHGCnUZWApKg43T3j6mBlgUs9lfeBHtzwrA7WnTAdBUCQsBxgp1GVAEm6a8bVio+MCUYWuNiWqgJ9e8N/6D8Of6j2ni7TcQA4jBJgp1GXgGnxqbqLaYCVWro79YsD7+qe93+lN4p3mI4DwEFdfT2mI8CAUZcAaWAaEB42pj8KHyhorNTPdr6hB9g4CPgGJcBOY7qSz0nKZBoAbTtVqIc/el4/2vqy9teWmY4DYBy6eikBNhrz/51ngyAG/blsn+55/1f6u60v6/2Th0zHATAGTALsFDHWP3h56nTdcdkSrS3d62QeeNg7Zfv0Ttk+zU+Zos9OX6zPTrtcmXHJpmMBGIFOJgGuFKawoL7/mEuAJN014xpKAM6TV39SefUn9VTeB/rstMv1memLdV16julYAC6CSYA7BcJcXAKuS8/RLVMWMALGsFq6O7S6eLtWF2/XgolTtTRjlm7MmKNr0meajgbgHF29vaYjYBiuLgHSwCcFKAG4lEN1J3So7oSeObxe2QlpWpoxW6umLqIQAC7BJMCdXF8Cbpo8TzdkztbmygIn8sACJc01Kmmu0cuFW5QWk6Bbpy7U4tTpmpOUqdzkLNPxAOv09ferp49JgBu5ek/AoLtmXE0JwJjUdDTrlcIteqVwy9Cx3OSsoUIwJzlLuUlZSo2JN5hy9Np7ulTV3qSq9kadam9UTUeLatqbVdNx5hdPaYQ7MAVwr0CQ78njSAn47LTFeqlgi/bUlDjxdrDckYYKHWmo0JrSPUPHkqJiNS0+VdPjUzXt9Nfg95NC/FCrlu5OVbU3qqqtceC1vVGVbY061d40dIGv7WhRbz9PZYM3cI8A93L9csCgu2dcTQlA0DR2taux7sSwDzGKjYjStPhUTYyeoMhAuKICEYoKRCgyfOD7yEC4osIjhr7v6u1RZ1/PGa/d6uztUddZx3rOONZ91jEu7vAbJgHu5ZkScNeMq/VmyU7trqYIILTae7p0tKHCdAzAs7hHgHsFuwQ4utjw4NyVTr4dACAEmAS4VyDIGwMdLQHLs3J1z+wbnHxLAECQsSfAvYK9MdDxd39w7k2aFp/q9NsCAIKESYB7eWo5QJImxSbqwXk3Of22AIAgYRLgXmFeKwGSdPeMa3Tb1IXBeGsAgMOYBLiXp/YEnOnb81YqJjwyWG8PAHAIzw1wL88tBwxakDJF357HpwUAwO2YBLiX5zYGnunBeTdpcer0YJ4CADBO7AlwL89OAiQpPCygB5kGAICrdTIJcC3P7gkYdNPkefpqzvXBPg0AYIyYBLiXpycBgx6cd5MmT0gJxakAAKPEngD38kUJyIxL1oNzuXcAALgRkwD38vTGwDN9Oec63cq9AwDAdZgEuFeY1/cEnOlHS+7QzMT0UJ4SAHAJLd0dpiPgAnyxHDBoclyyfrTkjlCeEgBwCS3dnaYj4AJ8VQIkaVnmHP1oyedCfVoAwAUwCXAv3+wJONN9c5brSzOvNXFqAMA5WnooAW7l+fsEXMg/XH23rkjLNnV6AMBpLAe4l++WA870q+XfVFJUnMkIAGC9VpYDXMvXJSAhMkb/b+k9JiMAgPWYBLhXuB/3BJzp+oxZ+sHlnzUdAwCsxcZA94qNiArq+xsvAZL0wNxPadXURaZjAIB1+tWv1h4mAW4VEx4Z1Pd3RQmQpMdv+E+aHp9mOgYAWIWlAHezYhIw6M+3/9B0BACwCksB7mbNJGDQm5/+L6YjAIA1KAHuZtUkQJJmJ2XqxVu+ZzoGAFiB5QB3s24SIEmLU6czEQCAEGAS4F7BLgCSS0uANDAR+NNnfmA6BgD4GrcMdq9gLwVILi4BkpSTmEERAIAgYjnAvayeBAyiCABA8HDLYPeyfhIwaLAIRIegFQGATdgT4F5MAs6Qk5ih1257WCnRE0xHAQDfYDnAvZgEnCMnMUO/XfkdTZmQYjoKAPgCkwD3YhIwjJzEDP1q+TeVk5hhOgoAeF4Lzw1wLSYBF5CTmKHHb7iHIgAA48QkwL2YBFzEYBFYnDrddBQA8KyajmbTEXABsZSAi8tJzNDTKx7Q38y81nQUAPCkqrZG0xFwATEsB1zahMho/f3Vd+snV9ypQFiY6TgA4BltPV1qZjnAtZgEjMLfzr5RT694QHOSs0xHAQBPqGpnCuBmTAJG6fqMWXp6xbd0+/QlpqMAgOuxFOBuTALGIC0mQf98/df0/UWfNh0FAFyNSYC7MQkYhwfnrdQvb7xP0+JTTUcBAFeqam8yHQEXwSRgnFZOma+nV3xLK6fMNx0FAFyHSYC7MQlwwLT4VP3yxvv0nXkrTUcBAFdhT4C7MQlw0KOLPq1/vv5rSotJMB0FAFzhFMsBrhYXER30c1hTAiTp9ulL9PSKb+mOy64wHQUAjGM5wN1C8dRcq0qAJM1JztI/XfdV/eLGe3VlWrbpOABgRE9fr2o7WkzHwEVQAoLolikL9MLND+nHS+5QZlyS6TgAEFJ8MsDdAmEBJUXFBv88QT+Dy907Z5l+f/P3dO+cZaajAEDIsBTgbhNDMAWQKAGSpMy4JP14yR164eaHdMuUBabjAEDQ8ckAdwvFUoAkRYTkLB5xZVq2rkzL1trSPXr+6CYdri83HQkAgoJJgLulRMeF5DxMAoZxx2VX6MWbv6dHF31aSVGh+R8CAEKJPQHuFqpJACXgAqLCI/SdeSv14i3f1d/MvNZ0HABwFJMAd6MEuER2wiT9/dV36+kVD7BfAIBvVLQ2mI6Ai2BPgMvckDlbN2TO1u6aEr1VsltvlexWV1+P6VgAMCbHmk+ZjoCLSImiBLjS4ObBb8xZrrdKd+tPJbu49SYATznV3qSW7k7TMXARLAe43IzESfr+ok/rjVXf198t+Zxyk7NMRwKAETnWXG06Ai6B5QCPSImeoG/MWT4wGSjZrbdKd2trVaHpWABwQceaKAFuRwnwoM9nX6nPZ1+pTRVH9FbJbr1zfJ/pSABwHvYDuB8lwMOWZ+VqeVau7stdNrSJsLWH9TcA7sAkwP0oAT6waOI0LZo4Td/IHVgqWF9+WMlq2LoAABJlSURBVHn1J03HAmA59gS4W3xkjCID4SE5FyUgBKZOmKjvLbhV31twq3ZUF2t9+WFtKD+skuYa09EAWKajt1sVbdwjwM1CNQWQKAEhd82kmbpm0kz93eLPDZWB9RX5quZjhgBC4FgT+wHcjhJgiZsmz9NNk+fphz2dA2WgPF8byg+zfwAIkgkR0cpOSFN2wqSBr8Q0zTj9vS2KWQpwPUqAZSZEROv26Ut0+/Qlqm5v0vqK/NOl4LDpaIBnTYtPVXbCJxf57IQ05SRmKDUm3nQ0o9gU6H6UAItNik3Ul2deqy/PvFYlzTVDZWBHdbHpaIArJUfFDV3ksxMmaWZiumYnZWhafKrpaK7EpkD3m0gJgKSBv9Ryl+sbucuVV39S68sPa39tmfbVlqm5u8N0PCCkAmFhQ2P8GQmTNDspQ7OTMjU7KVOBsDDT8TyDPQHuNykmIWTnogR4xPyUKZqfMkXSwO7ePTWlQ4Vgf22ZGrraDCcEnDMpJkHZCZM064wL/eykDMVHxpiO5nlMAtwvKy45ZOeiBHhQTHiklmbM0tKMWUPHdlUf0+6aktPF4LjqOlsMJgRGJjo8QjmJGUMX+cELfnpsoulovnSitU7dfb2mY+ASKAEYtasmzdBVk2YM/ZxXf1K7qo9pV02J9tWUqrqj2WA62C49NlFTJ0zU1PiJmjph4tBF36Zd+W5wtKHCdASMQNYESgDGaXD54N45yyRJxU2ntKumZKAYVB/jZiFwVGxElKZOmKhppy/yZ17wp06YqKhw/qpxgx3Vx0xHwCVEh0dqYnToPsHCv5mWmJmYrpmJ6fryzGslSfWdrSpqqlJR06mBr8aB72uYGGAYgbAwZcWlaHJc8icX9zMu8rZ/7M4rdpwqMh0BlxDKpQCJEmCtlOgJunrSTF09aeZZxxu72ofKQXFTlYoaB0pCVXujoaQIhZjwSE2eMHCRzzr9OjkuRVkTBl4z45JMR8Q41Xe2Kp/lANejBMCopKhYXZmWrSvTss863tLdcXpq8Mn0oLixSuUsK7heeFhAaTEJSotJUEZc4lkX98GLfig/lwwz9tSUmo6AEaAEwJXiI2O0OHW6FqdOP+t4e0+XippOqbKtQTUdLarpaD7na+BYDzuSHZcQGTN0cU+LHXidNPjzGce4wEMSNxzziFBuCpQoARin2IgoLZw4VQsnTr3o72voalNNR7Nq25svWhbqO1tDlNw94iNjlBgZo4SoWCVGxSoxMnbg+8gYJUbFKiFy8HiMkqLjhi7yMeGRpqPDQ3acogR4AZMA+FJyVJySo+I0KzHjor+vt79vqBg0d3Wos7dbnb096uw7/dp7zusFjw9zrLd76HiYwhQeFlB4IKCIodfwCx6LCASGXiPCwhUdHqmo8AhFh0coOhA58BoeMXA8MPAafc6vR53+9cGL/uAFnrvdIdgq2xqU31BuOgZGYDIlADYLDwsoIzZJGbFsRAOcwn4A7wj1JCAQ0rMBAEJuTy0lwCsoAQAAR+3mJkGeMCk2QRGB8JCekxIAAD5W2lzD/QE8IisuJeTnpAQAgI+xFOAdoV4KkCgBAOBrbAr0DkoAAMBRO7k/gGdQAgAAjvm48qhKW2pMx8AIUQIAAI75uPKo6QgYhRmJk0J+TkoAAPjUR5QAz4gJj9SMBEoAAMAB204VqbjplOkYGKG5KZONnJcSAAA+xFKAt8xLpgQAABzyUeUR0xEwCnMpAQAAJ+yqPqajDZWmY2AU5rEcAABwAhsCvYdJAADAEewH8Jbc5CwFwsKMnJsSAAA+sq+2THn1J03HwCiYmgJIlAAA8BWWArzH1H4AiRIAAL6ysSLfdASMkqmPB0qUAADwjb8c369DdSdMx8AombpRkEQJAADfWFOy23QEjNL0+FRNiIg2dn5KAAD4wI7qYm1gKcBzTG4KlCgBAOALa0r2mI6AMTC5KVCiBACA5xU3ndKaUpYCvIhJAABgXNaU7lF3X6/pGBgDJgEAgDFr6mpnCuBR0+NTlRaTYDQDJQAAPOyt0t2qbGs0HQNjsCwr13QESgAAeNmaUjYEetWyzDmmI1ACAMCruDmQt12bnmM6AiUAALyKmwN51w2ZsxUTHmk6BiUAALxoTelubg7kYcsyze8HkCgBAOA5nb3dev7IR6ZjYByuSZ9pOoIkSgAAeM7zRz9SfkO56RgYo8kTUow+OfBMlAAA8JCS5hq9cGST6RgYh+UuWQqQKAEA4CkvHN2khq420zEwDldNmmE6whBKAAB4xJaqQr1WtM10DIwTJQAAMGovHGUZwOuuTc9RRmyi6RhDKAEA4AFvHtupTRVHTMfAOLlpCiBRAgDA9Vq7O/U8UwBfuCot23SEs1ACAMDlnj+6SYWNVaZjYJwmxSYyCQAAjNzWqkL96tBfTceAA5amz1JkINx0jLNQAgDApbp6e/TkwfdMx4BDVk6ZbzrCeSgBAOBSTx56T3trS03HgAOmxU/UysnzTMc4DyUAAFxofflhPZe/wXQMOGTl5PmKcNlSgEQJAADXaexq15MH15mOAQetnOy+pQCJEgAArvPkwXXKb6gwHQMOWTRxmmueGnguSgAAuMg7Zfv0cuEW0zHgIDduCBxECQAAl6hqb9STh/g0gN+4cUPgIEoAALjEkwffU2lzjekYcNDyrFzNTso0HeOCKAEA4ALP5K/Xm8d2mo4Bh7l1Q+AgSgAAGPZq0Vb92/6/mI4Bh8VHxuhmF+8HkCgBAGDU22V79fNdfzQdA0Fw8+T5SotJMB3joigBAGDInppS/XT7atMxECRu/lTAIEoAABjQ0NmmRz9+QT19vaajIAjcepvgc1ECAMCAr7//76rvbDUdA0Fy+/QlrrxN8LkoAQAQYl9575c63lJrOgaCJC4iSl/Ivsp0jBGhBABACD3y8QvKqz9pOgaC6AvZV2l6fKrpGCNCCQCAEHl8/zv68GSe6RgIsi/O8MYUQKIEAEBI/OLAuzwa2AJ3XHaFFqRMNR1jxCJMBwAAv3ts39t6/sgm0zEQAl/0yF6AQZQAAAiif9z9J54KaIlPZc3V9RmzTMcYFUoAAATJz3a+oTeKd5iOgRD5gof2AgyiBABAEPz3ba9qTeke0zEQIlemZWvV1EWmY4waJQAAHNTR262fbn9N7x4/YDoKQsgr9wU4FyUAABxS3dGsn25/TZsrC0xHQQjNSsrw1McCz0QJAAAHHGuu1k+3v6b9tcdNR0GIfTH7KoWHefMT95QAABinD07m6bF9b3MrYAtlxCZ5dilAogQAwLg8nfeBnji4znQMGPK1WUuVEj3BdIwxowQAwBicam/SY/ve1jtl+0xHgSFzk7N035wbTccYF0oAAIzS5soCPbbvbRU0VpqOAoPunbNM0eGRpmOMCyUAAEbh+SOb9Ni+t03HgGHLs3I9vRdgECUAAEagsatdj+17W388ttN0FLjAfXOWmY7gCEoAAFzCrupjemzf2zpYd8J0FLjAl2Zeo6UZs03HcAQlAAAu4pXCrXps39vq7O02HQUuMCEiWvfO9scUQKIEAMCwSptr9FTeB3qrdLfpKHCRe+cs06ykDNMxHEMJAIBzvFK4VU/lva/qjmbTUeAi2QmTfLMXYBAlAABOO1xfrqfy3tdfTx4yHQUudN+cZUqMijUdw1GUAACQ9Fz+Bj2V94FaezpNR4ELXZueo6/kXGc6huMoAQCstqv6mJ7K+0Cbq3jyHy7sXp8tAwyiBACwUk9fr36d94GeyvtA/eo3HQcudn/uCq2cPM90jKCgBACwzqaKI3oq7wPtrS01HQUutyTtMj28cJXpGEFDCQBgjdqOFj2bv0EvHN1kOgo84pGFqxQd7t9LpX//kwHAaT19fXqx8GO9WLBZ5a31puPAIx5eeJuuS88xHSOoKAEAfO2PJbv0UsFm5dWfNB0FHnJj5hw9NP8W0zGCjhIAwJfWlx/WiwUfa0tVoeko8Ji4iGg94uN9AGeiBADwlT01JXqxYLP+cny/6SjwqEcW3qaFE6eajhESlAAAvlDcdEovFmzWq0VbTUeBh62atsi39wQYDiUAgKfVdrToxYLNerHwY7V2c7c/jF16bKI1ywCDKAEAPIkd/3DawwtXaUbCJNMxQooSAMBTevr69Max7XqjeAc7/uGYe+fcqLtnXG06RshRAgB4QntPl944tkNvFO9QQWOl6TjwkZunzNePl9xpOoYRlAAArtbU1a7Xi7frjWM7VNpcYzoOfCY3OUv/97qvmY5hDCUAgCvVdrRodfE2/aF4h8rbGkzHgQ/FR0br/1z3VcVGRJmOYgwlAICrVLY1aHXxwJp/TUez6TjwsX+89iuak5RpOoZRlAAArlDWUqvXi7fr9eLtaupqNx0HPvfDxZ/TLVMWmI5hHCUAgFFFTaf0evE2vV60Q+29XabjwAJfzble38xdbjqGK1ACABiR31Cu1cXb9XrRdvX295mOA0vckDlb//OqL5qO4RoB0wEA2Ck8LKBwBRQICzMdBZaYFp+qp1c8YDqGq4T19/f3mw4BwF4nW+u0umi7VhdvV2NXm+k48LGDX/kn0xFchxIAwBXqO1u1uni7VhdtUwUfCYTDKADDowQAcJWuvh69VrRNq4u2q6ipynQc+AAF4MIoAQBc6w/Hdmh10XYdqDtuOgo8igJwcZQAAK73l+P7tbpou7adKjQdBR5CAbg0SgAAz9hYka/Vxdv14ck801HgchSAkaEEAPCcndXHtLp4m94u3Ws6ClyIAjBylAAAnpVXf1Kvn/5EAX+RQaIAjBYlAIDnHW+p1atFW7W6aLtaezpNx4EhFIDRowQA8I36zla9XLhFq4u2qZonEFqFAjA2lAAAvtPT16ffF3yk1cXbVdpcYzoOgmhmYrre+sx/NR3DsygBAHzttaJtWl28TYfry01HgcM+n32l/ve1XzEdw9MoAQCssLZ0j1YXb9eu6mOmo8ABP73yC/r6rKWmY3geJQCAVT44mafVxdu0qeKI6SgYo6dXPKAbMmebjuELlAAAVtpRXaxXCrfq3eP7TUfBCKXHJuqpFd/S7KRM01F8gxIAwGr5DeV6sWCz3jy203QUXMQtUxboH675kpKj4kxH8RVKAABIOtFap98d/VivF29TZ2+P6Tg4wz2zb9D/uOLzpmP4EiUAAM7Q2NWm3x7ZpNeLt6u+s9V0HOt9f9Gn9eC8laZj+BYlAACG0dffr2fzN+j14m062VpvOo514iNj9JMr7tQXs68yHcXXKAEAcAkvF27Ra0XbVNBYaTqKFZZl5uqRRau0IGWK6Si+RwkAgBFaW7pHLxdu0b7aMtNRfOvhhav00PybTcewBiUAAEZpfflhvVjwsbZUFZqO4huLU6fr0UWrdF36LNNRrEIJAIAx2lV9TC8c/UjvnzxkOoqnfTN3uR5ZuErR4ZGmo1iHEgAA43SkoUK/PbJRa0r3mI7iKTmJ6Xpk4SrdOnWh6SjWogQAgEPKW+v1bP4GrS7epj7+ar2oL828Ro8sXKW0mATTUaxGCQAAhzV3d+iZw+v1atFWtXR3mI7jKumxiXpk4SrdNeNq01EgSgAABE2/pGcPr9dLhZt1qr3JdBzjVk1dpEcWrdKMhEmmo+A0SgAAhMArRVv1+6Mfq6S52nSUkMuKS9b9cz+le3j0r+tQAgAghN4u26vnj2xSXv1J01FC4p5ZN+hbc1coMy7ZdBQMgxIAAAZsrMjXc/kbtbO62HSUoFiaMVvfmrtCSzNmm46Ci6AEAIBBu2tK9Ozh9dpQkW86iiMY/XsLJQAAXKCgsVLP5K/X26V7TUcZM0b/3kMJAAAXqWxr0DP5G/RK4RbTUUaM0b93UQIAwIVaujv1bP56/e7oR+ro7TYdZ1iM/r2PEgAALvds/gY9f2ST6jpbTEcZwujfHygBAOARrxVt03P5G3Sitc5YhuVZubpvzjJG/z5BCQAAj3mnbJ+eyV+vIw0VITvnVZNm6Ouzluoz0y4P2TkRfJQAAPCoTRVH9Gz+eu2sPha0c8xNnqyvz1qqL828JmjngDmUAADwuL21pXr28Hp9WH7YsfecFp+qr89aqvvmLHPsPeE+lAAA8Imipio9c3i91pTuGfN7TIyO19dnL9V359/iYDK4FSUAAHymqr1Jz+av10sFm0f8Z6LDI3XvnBv16MJVCoQFgpgObkIJAACfauvp0jP56/Xc4fXq6e+74O+7b84yPbJwlWIjokKYDm5ACQAAC/zmyEY9c3i9Grvaho59Ned6PbJolZKj4gwmg0mUAACwyOvF27W3tkyPLlyl9NhE03FgGCUAAABL/X/v3GSvaEJOYQAAAABJRU5ErkJggg==;" parent="SDCqc7lHkiElPCPP4OB7-23" vertex="1">
          <mxGeometry x="9.340000000000003" y="10" width="32.83" height="40" as="geometry" />
        </mxCell>
        <mxCell id="SDCqc7lHkiElPCPP4OB7-69" style="edgeStyle=orthogonalEdgeStyle;rounded=0;orthogonalLoop=1;jettySize=auto;html=1;exitX=0.5;exitY=0;exitDx=0;exitDy=0;fontSize=12;fontColor=#000000;startArrow=none;startFill=0;endArrow=oval;endFill=1;strokeColor=#3333FF;" parent="1" source="SDCqc7lHkiElPCPP4OB7-19" edge="1">
          <mxGeometry relative="1" as="geometry">
            <mxPoint x="522.9246153846153" y="800" as="targetPoint" />
          </mxGeometry>
        </mxCell>
        <mxCell id="SDCqc7lHkiElPCPP4OB7-19" value="" style="strokeColor=#dddddd;shadow=1;strokeWidth=1;rounded=1;absoluteArcSize=1;arcSize=2;" parent="1" vertex="1">
          <mxGeometry x="440.00000000000006" y="820" width="166" height="60" as="geometry" />
        </mxCell>
        <mxCell id="SDCqc7lHkiElPCPP4OB7-20" value="&lt;font color=&quot;#000000&quot;&gt;Redis&lt;/font&gt;&lt;br&gt;Cache / Broker" style="sketch=0;dashed=0;connectable=0;html=1;fillColor=#5184F3;strokeColor=none;shape=mxgraph.gcp2.hexIcon;prIcon=app_engine;part=1;labelPosition=right;verticalLabelPosition=middle;align=left;verticalAlign=middle;spacingLeft=5;fontColor=#999999;fontSize=12;" parent="SDCqc7lHkiElPCPP4OB7-19" vertex="1">
          <mxGeometry y="0.5" width="44" height="39" relative="1" as="geometry">
            <mxPoint x="5" y="-19.5" as="offset" />
          </mxGeometry>
        </mxCell>
        <mxCell id="SDCqc7lHkiElPCPP4OB7-22" value="" style="sketch=0;aspect=fixed;html=1;points=[];align=center;image;fontSize=18;image=img/lib/mscae/Cache_Redis_Product.svg;fontColor=#000000;" parent="SDCqc7lHkiElPCPP4OB7-19" vertex="1">
          <mxGeometry x="5.5800000000000125" y="12.190000000000055" width="42.41" height="35.62" as="geometry" />
        </mxCell>
        <mxCell id="SDCqc7lHkiElPCPP4OB7-51" value=":3306" style="text;html=1;align=center;verticalAlign=middle;resizable=0;points=[];autosize=1;strokeColor=none;fillColor=none;fontSize=12;fontColor=#000000;" parent="1" vertex="1">
          <mxGeometry x="290" y="950" width="50" height="20" as="geometry" />
        </mxCell>
        <mxCell id="SDCqc7lHkiElPCPP4OB7-52" value=":8000" style="text;html=1;align=center;verticalAlign=middle;resizable=0;points=[];autosize=1;strokeColor=none;fillColor=none;fontSize=12;fontColor=#000000;" parent="1" vertex="1">
          <mxGeometry x="290" y="800" width="50" height="20" as="geometry" />
        </mxCell>
        <mxCell id="SDCqc7lHkiElPCPP4OB7-53" value=":80" style="text;html=1;align=center;verticalAlign=middle;resizable=0;points=[];autosize=1;strokeColor=none;fillColor=none;fontSize=12;fontColor=#000000;" parent="1" vertex="1">
          <mxGeometry x="290" y="660" width="30" height="20" as="geometry" />
        </mxCell>
        <mxCell id="SDCqc7lHkiElPCPP4OB7-56" style="edgeStyle=orthogonalEdgeStyle;rounded=0;orthogonalLoop=1;jettySize=auto;html=1;exitX=0.5;exitY=0;exitDx=0;exitDy=0;fontSize=12;fontColor=#000000;startArrow=none;startFill=0;endArrow=oval;endFill=1;strokeColor=#3333FF;" parent="1" source="SDCqc7lHkiElPCPP4OB7-41" edge="1">
          <mxGeometry relative="1" as="geometry">
            <mxPoint x="287.44444444444446" y="950.0000000000002" as="targetPoint" />
          </mxGeometry>
        </mxCell>
        <mxCell id="SDCqc7lHkiElPCPP4OB7-72" value=":6379" style="text;html=1;align=center;verticalAlign=middle;resizable=0;points=[];autosize=1;strokeColor=none;fillColor=none;fontSize=12;fontColor=#000000;" parent="1" vertex="1">
          <mxGeometry x="520" y="800" width="50" height="20" as="geometry" />
        </mxCell>
        <mxCell id="SDCqc7lHkiElPCPP4OB7-73" value="" style="verticalLabelPosition=bottom;html=1;verticalAlign=top;strokeWidth=1;align=center;outlineConnect=0;dashed=0;outlineConnect=0;shape=mxgraph.aws3d.application;fillColor=#4286c5;strokeColor=#57A2D8;aspect=fixed;shadow=0;labelBackgroundColor=none;sketch=0;fontSize=12;fontColor=#000000;" parent="1" vertex="1">
          <mxGeometry x="350" y="720" width="27.03" height="30" as="geometry" />
        </mxCell>
        <mxCell id="SDCqc7lHkiElPCPP4OB7-74" value="" style="verticalLabelPosition=bottom;html=1;verticalAlign=top;strokeWidth=1;align=center;outlineConnect=0;dashed=0;outlineConnect=0;shape=mxgraph.aws3d.application;fillColor=#4286c5;strokeColor=#57A2D8;aspect=fixed;shadow=0;labelBackgroundColor=none;sketch=0;fontSize=12;fontColor=#000000;" parent="1" vertex="1">
          <mxGeometry x="350" y="860" width="27.03" height="30" as="geometry" />
        </mxCell>
        <mxCell id="SDCqc7lHkiElPCPP4OB7-75" value="" style="verticalLabelPosition=bottom;html=1;verticalAlign=top;strokeWidth=1;align=center;outlineConnect=0;dashed=0;outlineConnect=0;shape=mxgraph.aws3d.application;fillColor=#4286c5;strokeColor=#57A2D8;aspect=fixed;shadow=0;labelBackgroundColor=none;sketch=0;fontSize=12;fontColor=#000000;" parent="1" vertex="1">
          <mxGeometry x="350" y="1010" width="27.03" height="30" as="geometry" />
        </mxCell>
        <mxCell id="SDCqc7lHkiElPCPP4OB7-77" value="" style="verticalLabelPosition=bottom;html=1;verticalAlign=top;strokeWidth=1;align=center;outlineConnect=0;dashed=0;outlineConnect=0;shape=mxgraph.aws3d.application;fillColor=#4286c5;strokeColor=#57A2D8;aspect=fixed;shadow=0;labelBackgroundColor=none;sketch=0;fontSize=12;fontColor=#000000;" parent="1" vertex="1">
          <mxGeometry x="816.15" y="860" width="27.03" height="30" as="geometry" />
        </mxCell>
        <mxCell id="SDCqc7lHkiElPCPP4OB7-78" value="" style="verticalLabelPosition=bottom;html=1;verticalAlign=top;strokeWidth=1;align=center;outlineConnect=0;dashed=0;outlineConnect=0;shape=mxgraph.aws3d.application;fillColor=#4286c5;strokeColor=#57A2D8;aspect=fixed;shadow=0;labelBackgroundColor=none;sketch=0;fontSize=12;fontColor=#000000;" parent="1" vertex="1">
          <mxGeometry x="585.54" y="860" width="27.03" height="30" as="geometry" />
        </mxCell>
      </root>
    </mxGraphModel>
  </diagram>
  <diagram id="lCfN-Vl-v3u1pvFGaXv9" name="Структура приложения">
    <mxGraphModel dx="1253" dy="615" grid="0" gridSize="10" guides="1" tooltips="1" connect="1" arrows="1" fold="1" page="0" pageScale="1" pageWidth="827" pageHeight="1169" math="0" shadow="0">
      <root>
        <mxCell id="PUX6jmoBfE5CQSiI87-m-0" />
        <mxCell id="PUX6jmoBfE5CQSiI87-m-1" parent="PUX6jmoBfE5CQSiI87-m-0" />
        <mxCell id="CVTRG9gTyBJ6a0DyhJM1-49" style="edgeStyle=orthogonalEdgeStyle;rounded=0;orthogonalLoop=1;jettySize=auto;html=1;exitX=0.5;exitY=1;exitDx=0;exitDy=0;entryX=0.5;entryY=0;entryDx=0;entryDy=0;startArrow=oval;startFill=1;endArrow=oval;endFill=1;strokeColor=#3399FF;" edge="1" parent="PUX6jmoBfE5CQSiI87-m-1" source="CVTRG9gTyBJ6a0DyhJM1-43" target="PUX6jmoBfE5CQSiI87-m-22">
          <mxGeometry relative="1" as="geometry">
            <Array as="points">
              <mxPoint x="649" y="160" />
              <mxPoint x="649" y="160" />
            </Array>
          </mxGeometry>
        </mxCell>
        <mxCell id="CVTRG9gTyBJ6a0DyhJM1-41" style="edgeStyle=orthogonalEdgeStyle;rounded=1;orthogonalLoop=1;jettySize=auto;html=1;exitX=0.5;exitY=0;exitDx=0;exitDy=0;entryX=1;entryY=0.5;entryDx=0;entryDy=0;startArrow=oval;startFill=1;endArrow=oval;endFill=1;strokeColor=#3399FF;" edge="1" parent="PUX6jmoBfE5CQSiI87-m-1" source="CVTRG9gTyBJ6a0DyhJM1-37" target="PUX6jmoBfE5CQSiI87-m-22">
          <mxGeometry relative="1" as="geometry" />
        </mxCell>
        <mxCell id="PUX6jmoBfE5CQSiI87-m-41" value="API" style="edgeStyle=orthogonalEdgeStyle;rounded=1;orthogonalLoop=1;jettySize=auto;html=1;exitX=1;exitY=0.5;exitDx=0;exitDy=0;fontSize=12;fontColor=#000000;startArrow=oval;startFill=1;endArrow=oval;endFill=1;strokeColor=#3399FF;entryX=0;entryY=0.5;entryDx=0;entryDy=0;" parent="PUX6jmoBfE5CQSiI87-m-1" source="PUX6jmoBfE5CQSiI87-m-35" target="PUX6jmoBfE5CQSiI87-m-18" edge="1">
          <mxGeometry relative="1" as="geometry">
            <mxPoint x="306" y="230" as="targetPoint" />
            <Array as="points" />
            <mxPoint x="260.7699999999995" y="229.79999999999995" as="sourcePoint" />
          </mxGeometry>
        </mxCell>
        <mxCell id="PUX6jmoBfE5CQSiI87-m-47" value="link to" style="edgeStyle=orthogonalEdgeStyle;rounded=1;orthogonalLoop=1;jettySize=auto;html=1;exitX=1;exitY=0.5;exitDx=0;exitDy=0;fontSize=12;fontColor=#000000;startArrow=classic;startFill=1;endArrow=none;endFill=0;strokeColor=#3399FF;entryX=0.25;entryY=1;entryDx=0;entryDy=0;dashed=1;" parent="PUX6jmoBfE5CQSiI87-m-1" source="PUX6jmoBfE5CQSiI87-m-42" target="PUX6jmoBfE5CQSiI87-m-18" edge="1">
          <mxGeometry relative="1" as="geometry">
            <mxPoint x="340.77" y="300" as="targetPoint" />
            <Array as="points">
              <mxPoint x="300" y="330" />
              <mxPoint x="300" y="290" />
              <mxPoint x="372" y="290" />
            </Array>
            <mxPoint x="271.23000000000025" y="300" as="sourcePoint" />
          </mxGeometry>
        </mxCell>
        <mxCell id="PUX6jmoBfE5CQSiI87-m-3" value="" style="group" parent="PUX6jmoBfE5CQSiI87-m-1" vertex="1" connectable="0">
          <mxGeometry x="490" y="420" width="165.23" height="60" as="geometry" />
        </mxCell>
        <mxCell id="PUX6jmoBfE5CQSiI87-m-4" value="" style="strokeColor=#dddddd;shadow=1;strokeWidth=1;rounded=1;absoluteArcSize=1;arcSize=2;" parent="PUX6jmoBfE5CQSiI87-m-3" vertex="1">
          <mxGeometry width="165.23" height="60" as="geometry" />
        </mxCell>
        <mxCell id="PUX6jmoBfE5CQSiI87-m-5" value="&lt;font color=&quot;#000000&quot;&gt;&amp;nbsp; MySQL&lt;/font&gt;&lt;br&gt;&amp;nbsp; Database" style="shape=image;verticalLabelPosition=middle;labelBackgroundColor=none;verticalAlign=middle;aspect=fixed;imageAspect=0;image=https://cdn.worldvectorlogo.com/logos/mysql-6.svg;labelPosition=right;align=left;fontColor=#999999;html=1;" parent="PUX6jmoBfE5CQSiI87-m-3" vertex="1">
          <mxGeometry x="8.129999999999995" y="10" width="40.61" height="40" as="geometry" />
        </mxCell>
        <mxCell id="PUX6jmoBfE5CQSiI87-m-6" style="edgeStyle=orthogonalEdgeStyle;rounded=1;orthogonalLoop=1;jettySize=auto;html=1;exitX=0.5;exitY=0;exitDx=0;exitDy=0;fontSize=12;fontColor=#000000;startArrow=oval;startFill=1;endArrow=oval;endFill=1;strokeColor=#3399FF;strokeWidth=1;entryX=0.5;entryY=1;entryDx=0;entryDy=0;" parent="PUX6jmoBfE5CQSiI87-m-1" source="PUX6jmoBfE5CQSiI87-m-7" target="PUX6jmoBfE5CQSiI87-m-22" edge="1">
          <mxGeometry relative="1" as="geometry">
            <mxPoint x="656" y="180" as="targetPoint" />
            <Array as="points">
              <mxPoint x="573" y="280" />
              <mxPoint x="649" y="280" />
            </Array>
          </mxGeometry>
        </mxCell>
        <mxCell id="CVTRG9gTyBJ6a0DyhJM1-16" style="edgeStyle=orthogonalEdgeStyle;rounded=1;orthogonalLoop=1;jettySize=auto;html=1;exitX=0.5;exitY=1;exitDx=0;exitDy=0;entryX=0.5;entryY=0;entryDx=0;entryDy=0;startArrow=oval;startFill=1;endArrow=oval;endFill=1;strokeColor=#3399FF;" edge="1" parent="PUX6jmoBfE5CQSiI87-m-1" source="PUX6jmoBfE5CQSiI87-m-7" target="PUX6jmoBfE5CQSiI87-m-4">
          <mxGeometry relative="1" as="geometry">
            <Array as="points">
              <mxPoint x="573" y="410" />
              <mxPoint x="573" y="410" />
            </Array>
          </mxGeometry>
        </mxCell>
        <mxCell id="PUX6jmoBfE5CQSiI87-m-7" value="" style="strokeColor=#dddddd;shadow=1;strokeWidth=1;rounded=1;absoluteArcSize=1;arcSize=2;" parent="PUX6jmoBfE5CQSiI87-m-1" vertex="1">
          <mxGeometry x="490" y="300" width="165.23" height="60" as="geometry" />
        </mxCell>
        <mxCell id="PUX6jmoBfE5CQSiI87-m-8" value="&lt;font color=&quot;#000000&quot;&gt;Celery / python&lt;/font&gt;&lt;br&gt;Task Queue" style="sketch=0;dashed=0;connectable=0;html=1;fillColor=#5184F3;strokeColor=none;shape=mxgraph.gcp2.hexIcon;prIcon=app_engine;part=1;labelPosition=right;verticalLabelPosition=middle;align=left;verticalAlign=middle;spacingLeft=5;fontColor=#999999;fontSize=12;" parent="PUX6jmoBfE5CQSiI87-m-7" vertex="1">
          <mxGeometry y="0.5" width="44" height="39" relative="1" as="geometry">
            <mxPoint x="5" y="-19.5" as="offset" />
          </mxGeometry>
        </mxCell>
        <mxCell id="PUX6jmoBfE5CQSiI87-m-9" value="" style="shape=image;verticalLabelPosition=bottom;labelBackgroundColor=default;verticalAlign=top;aspect=fixed;imageAspect=0;image=https://codeguida.com/media/post_title/celery-logo.png;fontSize=18;" parent="PUX6jmoBfE5CQSiI87-m-7" vertex="1">
          <mxGeometry x="6.7900000000000205" y="10" width="40" height="40" as="geometry" />
        </mxCell>
        <mxCell id="CVTRG9gTyBJ6a0DyhJM1-2" value="" style="shape=image;verticalLabelPosition=bottom;labelBackgroundColor=default;verticalAlign=top;aspect=fixed;imageAspect=0;image=https://www.ansaroo.com/images/550_59/5926882f525c0dca4f72b6c67de7ccf0.jpeg;clipPath=inset(7.14% 31% 10.71% 30.33%);" vertex="1" parent="PUX6jmoBfE5CQSiI87-m-7">
          <mxGeometry x="8.460000000000036" y="10" width="38.33" height="38" as="geometry" />
        </mxCell>
        <mxCell id="PUX6jmoBfE5CQSiI87-m-11" value="HTTP" style="edgeStyle=orthogonalEdgeStyle;rounded=0;orthogonalLoop=1;jettySize=auto;html=1;fontSize=12;fontColor=#000000;startArrow=oval;startFill=1;endArrow=oval;endFill=1;strokeColor=#3399FF;entryX=0.5;entryY=0;entryDx=0;entryDy=0;" parent="PUX6jmoBfE5CQSiI87-m-1" source="PUX6jmoBfE5CQSiI87-m-12" target="PUX6jmoBfE5CQSiI87-m-18" edge="1">
          <mxGeometry relative="1" as="geometry">
            <mxPoint x="413" y="190" as="targetPoint" />
          </mxGeometry>
        </mxCell>
        <mxCell id="PUX6jmoBfE5CQSiI87-m-12" value="" style="strokeColor=#dddddd;shadow=1;strokeWidth=1;rounded=1;absoluteArcSize=1;arcSize=2;" parent="PUX6jmoBfE5CQSiI87-m-1" vertex="1">
          <mxGeometry x="330.77" y="90" width="165.23000000000002" height="60" as="geometry" />
        </mxCell>
        <mxCell id="PUX6jmoBfE5CQSiI87-m-13" value="&lt;font color=&quot;#000000&quot;&gt;Nginx / Web server&lt;/font&gt;&lt;br&gt;Frontend" style="sketch=0;dashed=0;connectable=0;html=1;fillColor=#5184F3;strokeColor=none;shape=mxgraph.gcp2.hexIcon;prIcon=app_engine;part=1;labelPosition=right;verticalLabelPosition=middle;align=left;verticalAlign=middle;spacingLeft=5;fontColor=#999999;fontSize=12;" parent="PUX6jmoBfE5CQSiI87-m-12" vertex="1">
          <mxGeometry y="0.5" width="44" height="39" relative="1" as="geometry">
            <mxPoint x="5" y="-19.5" as="offset" />
          </mxGeometry>
        </mxCell>
        <mxCell id="PUX6jmoBfE5CQSiI87-m-14" value="" style="shape=image;verticalLabelPosition=middle;labelBackgroundColor=default;verticalAlign=middle;aspect=fixed;imageAspect=0;image=data:image/svg+xml,PHN2ZyB4bWxucz0iaHR0cDovL3d3dy53My5vcmcvMjAwMC9zdmciIGlkPSJMYXllcl8xIiBkYXRhLW5hbWU9IkxheWVyIDEiIHZpZXdCb3g9IjAgMCA2My4zNiA3My40NCI+PGRlZnM+PHN0eWxlPi5jbHMtMXtmaWxsOiMwMDk2Mzk7fS5jbHMtMntmaWxsOiNmZmY7fS5jbHMtM3tmaWxsOiM5OTk7fTwvc3R5bGU+PC9kZWZzPjx0aXRsZT5OR0lOWC1oZXgtc291cmNlLVJHQi0wMjwvdGl0bGU+PHBhdGggY2xhc3M9ImNscy0xIiBkPSJNLjUwMjcyLDU0LjcyMWEzLjYzNywzLjYzNywwLDAsMCwxLjM2NjQxLDEuMzU1OTNMMjkuODIxOTIsNzIuMjE1NDlsLjAwMDg3LS4wMDA4N2EzLjY2NzkzLDMuNjY3OTMsMCwwLDAsMy43MTUyOSwwTDYxLjQ5MTc1LDU2LjA3NjA2YTMuNjY1NjgsMy42NjU2OCwwLDAsMCwxLjg1Njc3LTMuMjE2MTlWMjAuNTgyNzVsLS4wMDA4Ny0uMDAwODdBMy42NjY4NSwzLjY2Njg1LDAsMCwwLDYxLjQ5LDE3LjM2NDgxTDMzLjUzNjM0LDEuMjI2MjVWMS4yMjUzOGEzLjY2MzEzLDMuNjYzMTMsMCwwLDAtMy43MTI2OCwwdi4wMDA4N0wxLjg3MDg3LDE3LjM2NDgxQTMuNjY1MywzLjY2NTMsMCwwLDAsLjAxMjM1LDIwLjU4MTg4bC0uMDAwODcuMDAwODdWNTIuODU5ODdBMy42NDQyNiwzLjY0NDI2LDAsMCwwLC41MDE4NSw1NC43MjEiLz48cGF0aCBjbGFzcz0iY2xzLTIiIGQ9Ik0yMi43MzAxNSw0OS4wMDhhMy41OTQ4OCwzLjU5NDg4LDAsMCwxLTcuMTg5NzYsMGwuMDAwODguMDAwODguMDAzNDktMjQuNjc3MjdjMC0xLjkxMTc0LDEuNjg5MjQtMy40OTI3OSw0LjA4MTc1LTMuNDkyNzlhNi4zOTI4Miw2LjM5MjgyLDAsMCwxLDQuOTAwMjEsMi4xOTFMMjUuNjEzLDI0LjMyOTg5LDQwLjYzMTI0LDQyLjMwMjUzVjI0LjQzMkg0MC42Mjk1YTMuNTk0ODgsMy41OTQ4OCwwLDAsMSw3LjE4OTc1LDBoLS4wMDA4N2wtLjAwMzQ5LDI0LjY3NTUyYzAsMS45MTE3NS0xLjY5MDExLDMuNDkyNzktNC4wODE3NSwzLjQ5Mjc5YTYuMzg4NTcsNi4zODg1NywwLDAsMS00LjkwMDIxLTIuMTkxTDIyLjcyODQsMzEuMTM2NTlWNDkuMDA4OVoiLz48cGF0aCBjbGFzcz0iY2xzLTMiIGQ9Ik01OS45NzQ3OCw2Ni4wMzQxaC40NTkzNFY2NS4wMTFoLjM2MzM1YTEuMDM2NzQsMS4wMzY3NCwwLDAsMSwuNTEwMzcuMDg1MjIuNjM5MTcuNjM5MTcsMCwwLDEsLjI0MjU1LjU5NTEzdi4yMDk3NmwuMDEwMjkuMDc4MmEuMTU3ODEuMTU3ODEsMCwwLDEsLjAwNy4wMzI3OGMuMDAyMzQuMDEyNjQuMDAzMjguMDE2MzguMDEwMy4wMjJoLjQyNTYzbC0uMDE1NDYtLjAyOWEuMjk4NjMuMjk4NjMsMCwwLDEtLjAyMDYtLjEzM2MtLjAwNjA5LS4wNzM1MS0uMDA2MDktLjEzNjI1LS4wMDYwOS0uMTk0MzF2LS4xOTM4NWEuNzQxOTQuNzQxOTQsMCwwLDAtLjE0MjM0LS40MDU0OS42NjEyOS42NjEyOSwwLDAsMC0uNDUzMjUtLjI1NDcyLDEuMTE4ODQsMS4xMTg4NCwwLDAsMCwuMzc3ODctLjEyMjY4LjU2NjczLjU2NjczLDAsMCwwLC4yNTM3OC0uNTE1MDUuNjQwMDguNjQwMDgsMCwwLDAtLjQwMTc0LS42NjA2OCwxLjk5OTA2LDEuOTk5MDYsMCwwLDAtLjcxMjE5LS4wOTMxOGgtLjkwODg0Wm0xLjMwNjM3LTEuNDAyODJhMS4xODgyLDEuMTg4MiwwLDAsMS0uNDM2ODYuMDU4MDZoLS40MTAxN1Y2My43NDIxaC4zOTE0NGExLjE1NTUsMS4xNTU1LDAsMCwxLC41NTIuMTAxNjEuMzk0MTMuMzk0MTMsMCwwLDEsLjE3Mjc4LjM3OTc0LjQwMDg3LjQwMDg3LDAsMCwxLS4yNjkyNC40MDc4M20xLjMzNC0xLjU2MzlhMi4zMDc5MiwyLjMwNzkyLDAsMCwwLTEuNjg3LS42ODk3MSwyLjM3MywyLjM3MywwLDAsMCwwLDQuNzQ2LDIuMzc3MjQsMi4zNzcyNCwwLDAsMCwxLjY4Ny00LjA1NjNtLS4yNDExNC4yMzU1MmExLjk0MzU5LDEuOTQzNTksMCwwLDEsLjU5NTU5LDEuNDQzNTYsMi4wMzkyMiwyLjAzOTIyLDAsMCwxLTMuNDg1NTIsMS40NTA1OSwyLjAxMzExLDIuMDEzMTEsMCwwLDEtLjU5Mjc5LTEuNDUwNTlBMi4wNDYyNywyLjA0NjI3LDAsMCwxLDYwLjkyODEsNjIuNjk3YTEuOTQ2LDEuOTQ2LDAsMCwxLDEuNDQ1OTEuNjA1ODkiLz48L3N2Zz4=;labelPosition=left;align=right;fontSize=18;" parent="PUX6jmoBfE5CQSiI87-m-12" vertex="1">
          <mxGeometry x="9.34" y="10" width="34.52" height="40" as="geometry" />
        </mxCell>
        <mxCell id="PUX6jmoBfE5CQSiI87-m-16" style="edgeStyle=orthogonalEdgeStyle;rounded=1;orthogonalLoop=1;jettySize=auto;html=1;exitX=0.75;exitY=1;exitDx=0;exitDy=0;fontSize=12;fontColor=#000000;startArrow=oval;startFill=1;endArrow=oval;endFill=1;strokeColor=#3399FF;entryX=0.5;entryY=0;entryDx=0;entryDy=0;" parent="PUX6jmoBfE5CQSiI87-m-1" source="PUX6jmoBfE5CQSiI87-m-18" target="PUX6jmoBfE5CQSiI87-m-4" edge="1">
          <mxGeometry relative="1" as="geometry">
            <mxPoint x="413" y="310" as="targetPoint" />
            <Array as="points">
              <mxPoint x="455" y="300" />
              <mxPoint x="455" y="400" />
              <mxPoint x="413" y="400" />
            </Array>
          </mxGeometry>
        </mxCell>
        <mxCell id="PUX6jmoBfE5CQSiI87-m-17" style="edgeStyle=orthogonalEdgeStyle;rounded=1;orthogonalLoop=1;jettySize=auto;html=1;exitX=1;exitY=0.5;exitDx=0;exitDy=0;fontSize=12;fontColor=#000000;startArrow=oval;startFill=1;endArrow=oval;endFill=1;strokeColor=#3399FF;entryX=0;entryY=0.5;entryDx=0;entryDy=0;" parent="PUX6jmoBfE5CQSiI87-m-1" source="PUX6jmoBfE5CQSiI87-m-18" target="PUX6jmoBfE5CQSiI87-m-22" edge="1">
          <mxGeometry relative="1" as="geometry">
            <mxPoint x="642" y="180" as="targetPoint" />
            <Array as="points">
              <mxPoint x="556" y="230" />
              <mxPoint x="556" y="230" />
            </Array>
          </mxGeometry>
        </mxCell>
        <mxCell id="CVTRG9gTyBJ6a0DyhJM1-15" value="&lt;font color=&quot;#000000&quot;&gt;API&lt;/font&gt;" style="edgeStyle=orthogonalEdgeStyle;rounded=1;orthogonalLoop=1;jettySize=auto;html=1;entryX=0.5;entryY=0;entryDx=0;entryDy=0;fontColor=#3333FF;endArrow=oval;endFill=1;startArrow=oval;startFill=1;strokeColor=#3399FF;exitX=0.5;exitY=1;exitDx=0;exitDy=0;" edge="1" parent="PUX6jmoBfE5CQSiI87-m-1" source="PUX6jmoBfE5CQSiI87-m-18" target="CVTRG9gTyBJ6a0DyhJM1-4">
          <mxGeometry x="-0.2242" relative="1" as="geometry">
            <mxPoint x="370" y="320" as="sourcePoint" />
            <Array as="points">
              <mxPoint x="413" y="320" />
              <mxPoint x="333" y="320" />
              <mxPoint x="333" y="420" />
            </Array>
            <mxPoint as="offset" />
          </mxGeometry>
        </mxCell>
        <mxCell id="PUX6jmoBfE5CQSiI87-m-18" value="" style="strokeColor=#dddddd;shadow=1;strokeWidth=1;rounded=1;absoluteArcSize=1;arcSize=2;" parent="PUX6jmoBfE5CQSiI87-m-1" vertex="1">
          <mxGeometry x="330.77" y="200" width="165.23000000000002" height="60" as="geometry" />
        </mxCell>
        <mxCell id="PUX6jmoBfE5CQSiI87-m-19" value="&lt;font color=&quot;#000000&quot;&gt;Django / python&lt;/font&gt;&lt;br&gt;Backend" style="sketch=0;dashed=0;connectable=0;html=1;fillColor=#5184F3;strokeColor=none;shape=mxgraph.gcp2.hexIcon;prIcon=app_engine;part=1;labelPosition=right;verticalLabelPosition=middle;align=left;verticalAlign=middle;spacingLeft=5;fontColor=#999999;fontSize=12;" parent="PUX6jmoBfE5CQSiI87-m-18" vertex="1">
          <mxGeometry y="0.5" width="44" height="39" relative="1" as="geometry">
            <mxPoint x="5" y="-19.5" as="offset" />
          </mxGeometry>
        </mxCell>
        <mxCell id="PUX6jmoBfE5CQSiI87-m-20" value="" style="shape=image;verticalLabelPosition=bottom;labelBackgroundColor=default;verticalAlign=top;aspect=fixed;imageAspect=0;image=data:image/png,iVBORw0KGgoAAAANSUhEUgAAAgEAAAJxCAYAAADbxGGgAAAgAElEQVR4nO3dd3Re9Z3n8Y8edVnVklXckC3bcsWmY7AdTHESAkkgk8YOJISQQ7JANruZJLs5ezKzObM7O8wyE8LkBAZIIKEaQoJNCCaAC7j3IstWsSTbKlbvXdo/ZAkX2Va5z/O79/7er3N0Hunafu4nCfh+8v39nnvDysvL+wUgJH7w8e+1t7bUdAyc419v+FstSbvMdIygWPnWP5qOgGG45Z+5iKysLNMZAGvEpiYpoi/edAycIy0jXVnp/vy7MCKFf97cyC3/zAVMBwCsEmY6AAB8ghIAhBKLbwBchBIAAIClKAEAAFiKEgAAgKUoAQAAWIoSAACApSgBAABYihIAAIClKAEAAFiKEgCEEncMBOAilAAglLhjIAAXoQQAAGApSgAAAJaiBAAAYClKAAAAlqIEAABgKUoAAACWogQAocR9AgC4CCUACCXuEwDARSgBAABYihIAAIClKAEAAFiKEgAAgKUoAQAAWIoSAACApSgBAABYihIAAIClKAFAKHHHQAAuQgkAQok7BgJwEUoAAACWogQAAGApSgAAAJaiBAAAYClKAAAAlqIEAABgKUoAAACWogQAAGApSgAAAJaiBAAAYClKAAAAlqIEAABgKUoAAACWogQAAGApSgAAAJaiBAAAYClKAAAAlqIEAABgKUoAAACWogQAAGApSgAAAJaiBAAAYClKAAAAlqIEAABgKUoAAACWogQAAGApSgAAAJaiBAAAYClKAAAAlqIEAABgKUoAAACWogQAAGApSgAAAJaiBAAAYClKAAAAlqIEAABgKUoAAACWogQAAGApSgAAAJaiBAAAYClKAAAAlqIEAABgKUoAAACWogQAAGApSgAAAJaiBAChFGY6AAB8ghIAhFK/6QAA8AlKAAAAlqIEAABgKUoAAACWogQAAGApSgAAAJaiBAAAYClKAAAAlqIEAABgKUoAAACWogQAAGApSgAAAJaiBAAAYClKAAAAlqIEAABgKUoAAACWogQAAGApSgAAAJaiBAAAYClKAAAAlqIEAABgKUoAAACWogQAAGApSgAAAJaiBAAAYKkI0wEAAMFzTfpMqf8SvylMA79nuNczXeh9LvT7L+Tc97nUeUPpUv9d+QwlAAB87Dc3fcd0BLgYywEAAFiKEgAAgKUoAQAAWIoSAACApSgBAABYihIAAIClKAEAAFiKEgAAgKUoAQAAWIoSAACApSgBAABYihIAhJLJB6MAwDkoAQAAWIoSAACApSgBAABYihIAAIClKAEAAFiKEgAAgKUoAQAAWIoSAACApSgBAABYihIAAIClKAEAAFiKEgAAgKUoAQAAWIoSAACApSgBAABYihIAAIClKAEAAFiKEgAAgKUoAQAAWIoSAACApSgBAABYihIAAIClKAEAAFiKEgAAgKUoAQAAWIoSAACApSgBAABYihIAAIClKAEAAFiKEgAAgKUoAQAAWIoSAACApSJMB4AdOnq7Vd5ar+qOZnX0dKujt0sdvd1q7+lWR+/pn4e+71b7OT939HR98mtn/JkwhSkyEK6IQPhZr5Fh4YoIBM7+tbBwJUbFKikq7vRr7Nk/R579MwD4HSUAjqjvbFVFW4PK2xpU0Vo/8NrWoPLWelW0Nai+szVIZ+5Xb2+f1Nvt+DvnJGZoVlK6chIzzvoeAPyCEoAROfOCPtyFviMIF2HTipqqVNRUJenAWcfPLQfzUrI0PT7NTEgAGAdKAM5T0lytg3UndKDuuPbXHteBuuOmI7nKcOUgKSpWiyZO06LUaboqbYauz5hlLiAAjBAlwHKVbY3KbyhXXv3JoYt+Y1eb6Vie09jVro8qj+qjyqNDx6ZOmKhFqdN0U9Y83TR5niZERhtMCADnowRYpKGrTfn15cpvKFd+Q4X215aprKXWdCzfOtFapxOtdXqnbN/QsWvSZxpMBABnowT42P7a48qrP3n6ol+ug3UnTEey3o5TxaYjAMAQSoDPbD9VpM2VBdpcVaC8+pOm4wAAXIwS4HE9fb3aXFWgzZUF+rjqqI41VZuOBADwCEqAB7V0d+jjygJtrjqqzZUFqmhrMB0JAOBBlACPqO5o1ubKo0Oj/uDdfAcAYAtKgIsdb6n9ZNRfedSXN+QBAJhDCXChjyqPaG3pXq0t3WM6CgBL/OrQX01HwAV8b8GtQXtvSoBLdPZ2D1z4y/bwMTIARlAE3CeYBUCiBBh3vKVWa0v3aG3ZXpU215iOAwCwCCXAkJ3VxwYu/qV7WOsHABhBCQixP5ft1drSvdpYkW86CgDAcpSAEKhub9LasoGNfkcaKkzHAQBAEiUgqPLqT2pN6W6tLd3L5/oBAK5DCQiCspZavVSwWS8XblFvf5/pOAAADIsS4KDajha9XLhFLxVuVlNXu+k4AABcFCXAAZ293XqpcIteLtyi8tZ603EAABgRSsA4rS7eppcLtuhoY6XpKAAAjAolYIz+XLZPLxdu1p6aUtNRAAAYE0rAKG2syNfLhVu0qeKI6SgAAIwLJWCEdteU6KWCzfrL8f2mowAA4AhKwCVUtjXq13nv6/Xi7aajAADgKErARbx7fL+eOLiOB/sAAHyJEjCM9p4uPXFwnX539CPTUQAACBpKwDm2VhXqiYPvan/tcdNRAAAIKkrAGX6d976ePPie6RgAAIQEJUADD/r55cF1fOwPAGAV60vAy4Vb9MSBdWru5l7/AAC7WFsCTrbW65cH12lt6R7TUQAAMMLKEvDnsr164sA6nWitMx0FAABjrCoBXX09+pd9f9ZLBZtNRwEAwDhrSkBZS41+vuuP2lJVaDoKAACuYEUJ2HaqSD/f9UeVNFebjgIAgGv4vgT8qWSXfr7rj+ro7TYdBQAAV/F1Cfh13gd68uA60zEAAHAl35aAv9/5B578BwDARfiyBDy08Tl9VHnUdAwAAFzNVyWgr79fd737bypqqjIdBQAA1/NNCShrqdWX1z2h1p5O01EAAPAEX5SAzVUF+s6GZ03HAADAUzxfAlYXbdM/7HrTdAwAADzH0yXgmcPr9W8H/mI6BgAAnhQwHWCs1pbuoQAAADAOniwBO6uL9ZNtr5qOAQCAp3muBOQ3lOubHz5tOgYAAJ7nqRJQ2lKjv1n3hOkYAAD4gmdKwKn2Jt397i9MxwAAwDc8UQJaujt0//qn1cmTAAEAcIzrS0Bvf5++//HvVNpcYzoKAAC+4voS8N+3vaptp4pMxwAAwHdcXQJ+tvMN/blsn+kYAAD4kmtLwD/tWaM3ineYjgEAgG+5sgT84sC7+n3Bx6ZjAADga64rAauLtuk/Dn9oOgYAAL7nqhJwqO6EHt/P8wAAAAgF15SA/v5+Pb7/HTV3t5uOAgCAFVxTAh7f/w4fBQQAIIRcUQLeKdun3xzZaDoGAABWMV4CSptr9Pj+d0zHAADAOsZLwOP731FFW4PpGAAAWMdoCXgq7wO9f/KQyQgAAFjLWAnYVHFEvzy4ztTpAQCwnpESUNvRwj4AAAAMM1ICHt//jgoaK02cGgAAnBbyEvBiwWb9qWRXqE8LAADOEdISsKemRP/KMgAAAK4Q0hLwq0Pvq6O3O5SnBAAAFxCyEvBS4RZtqSoI1ekAAMAlhKQEVLY16Df5G0JxKgAAMEIhKQHP5W/kroAAALhM0EvAlqoCvVS4OdinAQAAoxT0EvBcPk8HBADAjYJaAtgMCACAewWtBLAZEAAAdwtaCWAzIAAA7haUEsBmQAAA3C8oJYDNgAAAuJ/jJYDNgAAAeIOjJYDNgAAAeEeEk2/GZkCYkhGbpMy4JCVGxSo+IkYTIqMHviLOfo2PiFF0eIS6+nrU1dt7+rVn4PWMY23dnapoazjrCwD8xrEScKypWquLtzn1dsBZshPSNCMhXZlxScqKS1ZmXJIyB19jkxUICwt6hnNLQVFjlY42VupIQ0XQzw0AweBYCVhTulvdfb1OvR0slp2QpvkpU7UgZYrmpUzRvJTJSoiMMR1LWXHJyopLHvbXjjRUDBWCow0VOtJYodqOlhAnBIDRcaQENHW3a03pHifeChZanDpdN2bO0byUyZqbPPmCF1o3y03OUm5ylu687IqhY8db6rSlqkBbqgq0uapArd2dBhMCwPkcKQFrS/awZopRuWbSTN2YOWfo4u9H0+Inalr8dfpKznVq6+nSnpoS7akp0c7qY9pZfcx0PABwpgQwBcBIDF70b8ycrZzEDNNxQiouImroP78kHaw7od01JfrnvWsNJwNgs3GXgHXHD+hA3XEnssCHJkbH6/PZV+jOy65UbnKW6TiusXDiVLX3dJmOAcBy4y4BTAEwnFlJGfr8ZVfqzuwrNSkmwXQcAMAwxlUCdteU6MPyPKeywAeuTc/RnZddoc9nX6nwsKA+qRoAME7jKgFrSnY7lQMed2Vatu6fu0IrJ883HQUAMEJjLgGlLTUsBUBpMQm6P3eFvpG73HQUAMAojbkErC3Zo47ebiezwGO+knOd7s/9lKbFTzQdBQAwBmMqAa09nUwBLHZ9xizdn7ti6ONuAABvGlMJWFu6Ryda65zOAg/44eLb9c3cFaZjAAAcMKYSsKaEKYBtcpOz9N8W364bMmabjgIAcMioS8BfTx7S3trSYGSBS9152RX64eLPKTUm3nQUAICDRl0C3jt+IBg54FKM/wHAv0ZVAuo6W7SxIj9YWeAiOYkZ+vEVdzD+BwAfG1UJ2FCer+bujmBlgUvkJGbo8Rvuse4hPwBgm1GVgI0VR4KVAy6Rk5ihX6+4X1lxyaajAACCbMQloLKtkaUAn8tJzNDrqx5VZCDcdBQAQAiMuARsrMhXJ3cI9K2cxAz96TM/MB0DABBCI37MG1MA/1o0cRoFAAAsNKISUNZSqw2UAF+alzJZL9/6n03HAAAYMKISsLEiX/39/cHOghBLj03U6tseNR0DAGDIyEpAOVMAvwmEBfTqrQ+bjgEAMOiSJaCoqUqbqwpCkQUh9LubH9Kk2ETTMQAABl2yBGxgCuA7j13/dS1OnW46BgDAsEuWAG4Q5C8/uPwz+uz0xaZjAABc4KIl4HB9uXZWF4cqC4Js5eR5emDuTaZjAABc4qIlgHsD+EdsRJQeWnCL6RgAABehBFjiu/Nv0YKUqaZjAABc5IIloKS5Wvtqy0KZBUFyQ+ZsfWvup0zHAAC4zAVLwKH6k6HMgSAJDwvou/NZBgAAnO+CJSCvjhLgB99dcIuuSMs2HQMA4EIXmQScCGUOBMHCiVP1EFMAAMAFDFsCOnt7WA7wga/mXG86AgDAxYYtAftry9Te0xXqLHDQFWnZumvG1aZjAABcbNgScLDueKhzwGFfYwoAALiEYUsASwHedl16jj532RLTMQAALkcJ8KGvzmIKAAC4tPNKQEVbg4631JrIAgcsz8rVqqmLTMcAAHjAeSVgP3cJ9DQ+EQAAGKlhSgCbAr1qfsoU3TR5nukYAACPOL8E8MkAz7p16kLTEQAAHnJeCeBOgd4UFham2ygBAIBROKsEHKw7oa7eHlNZMA63TV2oGQmTTMcAAHjIWSVgfx2bAr3qtilMAQAAo3N2CWBToCdNj09lKQAAMGpnlYCjjZWmcmAcbpu6UBGBcNMxAAAec1YJ4CZB3nTLlAWmIwAAPGioBFR3NPPkQA/KSczQ5anTTccAAHjQUAlgCuBN16XnmI4AAPCooRJQRgnwpOszKAEAgLFhEuBhiVGxupn9AACAMaIEeNi1LAUAAMaB5QAP42FBAIDxYBLgYbdMmW86AgDAwwKS1NjVrsaudtNZMArXTJqphMhY0zEAAB4WkJgCeNG8lMmmIwAAPC4gsR/Ai+alTDEdAQDgcUwCPGo+kwAAwDhRAjwoKhChnMQM0zEAAB7HcoAHsR8AAOAEJgEexH4AAIATAu09XaruaDadA6PAfgAAgBMCTAG8Z14ykwAAwPgFajtbTGfAKLEnAADghEB7T7fpDBiF9NhE0xEAAD4R6OilBHhJRmyS6QgAAJ8IdPR2mc6AUWASAABwCssBHkMJAAA4hUmAx7AcAABwSqCDSYCnMAkAADgl0M7GQE+hBAAAnMJygMewHAAAcArLAR7DJAAA4BSWAzwkPCygCZHRpmMAAHwi0NHDcoBXRAbCTUcAAPgIkwAPiQxEmI4AAPARbhvsIVHhTAIAAM5hOcBDWA4AADiJ5QAPYTkAAOAk7hPgIUwCAABO4j4BHhJFCQAAOIjlAA9hOQAA4KSA6QAYOZYDAABOCsSER5rOAAAADKAEeEh3X6/pCAAAHwnERlACvKKrr8d0BACAjwRiwqNMZ8AIMQkAADiJ5QAP6WYSAABwECXAQ7p6mQQAAJwTiGFPgGcwCQAAOIlJgId0sScAAOCgQCwbAz2DSQAAwEksB3gIkwAAgJNYDvCQ/v5+1Xe2mo4BAPAJSoDHVLU3mo4AAPCJQEwEewK8pKqtyXQEAIBPMAnwGCYBAACnUAI8hhIAAHAKDxDyGEoAAMApPEDIY9gTAABwCssBHsMkAADgFG4W5DGUAACAUwKT41JMZ8AotHZ3qrqdJQEAwPgFJk+gBHjNofqTpiMAAHwgECYpKy7ZdA6MQh4lAADggIAkTWEa4CmUAACAEwKSxJKAt7AcAABwwkAJYHOgp1S3N7E5EAAwbqcnAewJ8BqmAQCA8WIS4FHsCwAAjBd7AjyKEgAAGC9KgEdtP1VkOgIAwOMCkhQRFlBGbKLpLBiFtp4u7a0pNR0DAOBhgcFvmAZ4z+aqAtMRAAAe9kkJYHOg51ACAADjwSTAw/bWlKqyjacKAgDG5owSwL0CvGh7NRsEAQBjw3KAx+04VWw6AgDAo1gO8Dg+KggAGCsmAR53srVe7x4/YDoGAMCDhkpAdHiEZiVmmMyCMVp3Yr/pCAAADwqc+cPitOmmcmAc3j1+QEVNVaZjAAA85qwSsCT1MlM5ME4sCQAARuusEnB56jRTOTBOlAAAwGidVQJyEjOUEBlrKgvGoaipiiIAYMz61W86AgwInHtgCfsCPIsNggDGqq+fEmCj80rAYvYFeNa7xw/oYN0J0zEAeFA/JcBK55WAhROnmMgBh7xatNV0BAAe1MdygJXOKwHzkikBXvbmsZ3aXVNiOgYAj2E5wE7nlYDUmHjlJmeZyAKHvFrINADA6FAC7HReCZCky1PZHOhlb5ft1daqQtMxAHgIewLsNGwJmJ88OdQ54DD2BgAYDfYE2GnYEjAvhX0BXvfeiYPaWJFvOgYAj2A5wE7DTwJSpiglekKos8Bhz+Vv5F9sACPS399nOgIMGLYEBMLCtCBlaqizwGE7q4v174feMx0DgAewHGCnYUuAJM1PYV+AHzyV94E2Vx41HQOAyzE1tNMFSwD7AvzjyUPvqaO323QMAC5GCbDTBUvAtekzlRQVF8osCJL9tcf17wdZFgBwYTxAyE4XLAFJUXFanpUbyiwIot8c2agPy/NMxwDgUkwC7HTBEiBJyzLnhCoHQuCJA+t0srXOdAwALkQJsNNFS8DyrFyWBHykoLFSP9v5B9MxALgQJcBOFy0BLAn4z9aqQv1k2yumYwBwGfYE2OmiJUBiScCP1pbu1b/se9t0DAAu0sfNgqx0yRLAkoA//fbIJn1Yfth0DAAuwXKAnS5ZAlgS8K9HPnpezd0dpmMAcAHuGGinS5YAiSUBP1v65t+rsavNdAwAhvEoYTuNqASwJOBvN/7xf6moqcp0DAAGsRxgpxGVAJYE/O8Lf/lXbasqNB0DgCGUADuNqARILAnY4IENz2ht6R7TMQAYwJ4AO424BLAkYIefbHtVvz2yyXQMACHGngA7jbgEsCRgj3/Z97Z+tvMN1XW2mI4CIERYDrDTiEuAxJKATd4o3qFvr39G67mXAGCFPnGzIBuNqgQsz8pVWkxCsLLAZY42Vurhj57XLw+uMx0FQJCxHGCnUZWApKg43T3j6mBlgUs9lfeBHtzwrA7WnTAdBUCQsBxgp1GVAEm6a8bVio+MCUYWuNiWqgJ9e8N/6D8Of6j2ni7TcQA4jBJgp1GXgGnxqbqLaYCVWro79YsD7+qe93+lN4p3mI4DwEFdfT2mI8CAUZcAaWAaEB42pj8KHyhorNTPdr6hB9g4CPgGJcBOY7qSz0nKZBoAbTtVqIc/el4/2vqy9teWmY4DYBy6eikBNhrz/51ngyAG/blsn+55/1f6u60v6/2Th0zHATAGTALsFDHWP3h56nTdcdkSrS3d62QeeNg7Zfv0Ttk+zU+Zos9OX6zPTrtcmXHJpmMBGIFOJgGuFKawoL7/mEuAJN014xpKAM6TV39SefUn9VTeB/rstMv1memLdV16julYAC6CSYA7BcJcXAKuS8/RLVMWMALGsFq6O7S6eLtWF2/XgolTtTRjlm7MmKNr0meajgbgHF29vaYjYBiuLgHSwCcFKAG4lEN1J3So7oSeObxe2QlpWpoxW6umLqIQAC7BJMCdXF8Cbpo8TzdkztbmygIn8sACJc01Kmmu0cuFW5QWk6Bbpy7U4tTpmpOUqdzkLNPxAOv09ferp49JgBu5ek/AoLtmXE0JwJjUdDTrlcIteqVwy9Cx3OSsoUIwJzlLuUlZSo2JN5hy9Np7ulTV3qSq9kadam9UTUeLatqbVdNx5hdPaYQ7MAVwr0CQ78njSAn47LTFeqlgi/bUlDjxdrDckYYKHWmo0JrSPUPHkqJiNS0+VdPjUzXt9Nfg95NC/FCrlu5OVbU3qqqtceC1vVGVbY061d40dIGv7WhRbz9PZYM3cI8A93L9csCgu2dcTQlA0DR2taux7sSwDzGKjYjStPhUTYyeoMhAuKICEYoKRCgyfOD7yEC4osIjhr7v6u1RZ1/PGa/d6uztUddZx3rOONZ91jEu7vAbJgHu5ZkScNeMq/VmyU7trqYIILTae7p0tKHCdAzAs7hHgHsFuwQ4utjw4NyVTr4dACAEmAS4VyDIGwMdLQHLs3J1z+wbnHxLAECQsSfAvYK9MdDxd39w7k2aFp/q9NsCAIKESYB7eWo5QJImxSbqwXk3Of22AIAgYRLgXmFeKwGSdPeMa3Tb1IXBeGsAgMOYBLiXp/YEnOnb81YqJjwyWG8PAHAIzw1wL88tBwxakDJF357HpwUAwO2YBLiX5zYGnunBeTdpcer0YJ4CADBO7AlwL89OAiQpPCygB5kGAICrdTIJcC3P7gkYdNPkefpqzvXBPg0AYIyYBLiXpycBgx6cd5MmT0gJxakAAKPEngD38kUJyIxL1oNzuXcAALgRkwD38vTGwDN9Oec63cq9AwDAdZgEuFeY1/cEnOlHS+7QzMT0UJ4SAHAJLd0dpiPgAnyxHDBoclyyfrTkjlCeEgBwCS3dnaYj4AJ8VQIkaVnmHP1oyedCfVoAwAUwCXAv3+wJONN9c5brSzOvNXFqAMA5WnooAW7l+fsEXMg/XH23rkjLNnV6AMBpLAe4l++WA870q+XfVFJUnMkIAGC9VpYDXMvXJSAhMkb/b+k9JiMAgPWYBLhXuB/3BJzp+oxZ+sHlnzUdAwCsxcZA94qNiArq+xsvAZL0wNxPadXURaZjAIB1+tWv1h4mAW4VEx4Z1Pd3RQmQpMdv+E+aHp9mOgYAWIWlAHezYhIw6M+3/9B0BACwCksB7mbNJGDQm5/+L6YjAIA1KAHuZtUkQJJmJ2XqxVu+ZzoGAFiB5QB3s24SIEmLU6czEQCAEGAS4F7BLgCSS0uANDAR+NNnfmA6BgD4GrcMdq9gLwVILi4BkpSTmEERAIAgYjnAvayeBAyiCABA8HDLYPeyfhIwaLAIRIegFQGATdgT4F5MAs6Qk5ih1257WCnRE0xHAQDfYDnAvZgEnCMnMUO/XfkdTZmQYjoKAPgCkwD3YhIwjJzEDP1q+TeVk5hhOgoAeF4Lzw1wLSYBF5CTmKHHb7iHIgAA48QkwL2YBFzEYBFYnDrddBQA8KyajmbTEXABsZSAi8tJzNDTKx7Q38y81nQUAPCkqrZG0xFwATEsB1zahMho/f3Vd+snV9ypQFiY6TgA4BltPV1qZjnAtZgEjMLfzr5RT694QHOSs0xHAQBPqGpnCuBmTAJG6fqMWXp6xbd0+/QlpqMAgOuxFOBuTALGIC0mQf98/df0/UWfNh0FAFyNSYC7MQkYhwfnrdQvb7xP0+JTTUcBAFeqam8yHQEXwSRgnFZOma+nV3xLK6fMNx0FAFyHSYC7MQlwwLT4VP3yxvv0nXkrTUcBAFdhT4C7MQlw0KOLPq1/vv5rSotJMB0FAFzhFMsBrhYXER30c1hTAiTp9ulL9PSKb+mOy64wHQUAjGM5wN1C8dRcq0qAJM1JztI/XfdV/eLGe3VlWrbpOABgRE9fr2o7WkzHwEVQAoLolikL9MLND+nHS+5QZlyS6TgAEFJ8MsDdAmEBJUXFBv88QT+Dy907Z5l+f/P3dO+cZaajAEDIsBTgbhNDMAWQKAGSpMy4JP14yR164eaHdMuUBabjAEDQ8ckAdwvFUoAkRYTkLB5xZVq2rkzL1trSPXr+6CYdri83HQkAgoJJgLulRMeF5DxMAoZxx2VX6MWbv6dHF31aSVGh+R8CAEKJPQHuFqpJACXgAqLCI/SdeSv14i3f1d/MvNZ0HABwFJMAd6MEuER2wiT9/dV36+kVD7BfAIBvVLQ2mI6Ai2BPgMvckDlbN2TO1u6aEr1VsltvlexWV1+P6VgAMCbHmk+ZjoCLSImiBLjS4ObBb8xZrrdKd+tPJbu49SYATznV3qSW7k7TMXARLAe43IzESfr+ok/rjVXf198t+Zxyk7NMRwKAETnWXG06Ai6B5QCPSImeoG/MWT4wGSjZrbdKd2trVaHpWABwQceaKAFuRwnwoM9nX6nPZ1+pTRVH9FbJbr1zfJ/pSABwHvYDuB8lwMOWZ+VqeVau7stdNrSJsLWH9TcA7sAkwP0oAT6waOI0LZo4Td/IHVgqWF9+WMlq2LoAABJlSURBVHn1J03HAmA59gS4W3xkjCID4SE5FyUgBKZOmKjvLbhV31twq3ZUF2t9+WFtKD+skuYa09EAWKajt1sVbdwjwM1CNQWQKAEhd82kmbpm0kz93eLPDZWB9RX5quZjhgBC4FgT+wHcjhJgiZsmz9NNk+fphz2dA2WgPF8byg+zfwAIkgkR0cpOSFN2wqSBr8Q0zTj9vS2KWQpwPUqAZSZEROv26Ut0+/Qlqm5v0vqK/NOl4LDpaIBnTYtPVXbCJxf57IQ05SRmKDUm3nQ0o9gU6H6UAItNik3Ul2deqy/PvFYlzTVDZWBHdbHpaIArJUfFDV3ksxMmaWZiumYnZWhafKrpaK7EpkD3m0gJgKSBv9Ryl+sbucuVV39S68sPa39tmfbVlqm5u8N0PCCkAmFhQ2P8GQmTNDspQ7OTMjU7KVOBsDDT8TyDPQHuNykmIWTnogR4xPyUKZqfMkXSwO7ePTWlQ4Vgf22ZGrraDCcEnDMpJkHZCZM064wL/eykDMVHxpiO5nlMAtwvKy45ZOeiBHhQTHiklmbM0tKMWUPHdlUf0+6aktPF4LjqOlsMJgRGJjo8QjmJGUMX+cELfnpsoulovnSitU7dfb2mY+ASKAEYtasmzdBVk2YM/ZxXf1K7qo9pV02J9tWUqrqj2WA62C49NlFTJ0zU1PiJmjph4tBF36Zd+W5wtKHCdASMQNYESgDGaXD54N45yyRJxU2ntKumZKAYVB/jZiFwVGxElKZOmKhppy/yZ17wp06YqKhw/qpxgx3Vx0xHwCVEh0dqYnToPsHCv5mWmJmYrpmJ6fryzGslSfWdrSpqqlJR06mBr8aB72uYGGAYgbAwZcWlaHJc8icX9zMu8rZ/7M4rdpwqMh0BlxDKpQCJEmCtlOgJunrSTF09aeZZxxu72ofKQXFTlYoaB0pCVXujoaQIhZjwSE2eMHCRzzr9OjkuRVkTBl4z45JMR8Q41Xe2Kp/lANejBMCopKhYXZmWrSvTss863tLdcXpq8Mn0oLixSuUsK7heeFhAaTEJSotJUEZc4lkX98GLfig/lwwz9tSUmo6AEaAEwJXiI2O0OHW6FqdOP+t4e0+XippOqbKtQTUdLarpaD7na+BYDzuSHZcQGTN0cU+LHXidNPjzGce4wEMSNxzziFBuCpQoARin2IgoLZw4VQsnTr3o72voalNNR7Nq25svWhbqO1tDlNw94iNjlBgZo4SoWCVGxSoxMnbg+8gYJUbFKiFy8HiMkqLjhi7yMeGRpqPDQ3acogR4AZMA+FJyVJySo+I0KzHjor+vt79vqBg0d3Wos7dbnb096uw7/dp7zusFjw9zrLd76HiYwhQeFlB4IKCIodfwCx6LCASGXiPCwhUdHqmo8AhFh0coOhA58BoeMXA8MPAafc6vR53+9cGL/uAFnrvdIdgq2xqU31BuOgZGYDIlADYLDwsoIzZJGbFsRAOcwn4A7wj1JCAQ0rMBAEJuTy0lwCsoAQAAR+3mJkGeMCk2QRGB8JCekxIAAD5W2lzD/QE8IisuJeTnpAQAgI+xFOAdoV4KkCgBAOBrbAr0DkoAAMBRO7k/gGdQAgAAjvm48qhKW2pMx8AIUQIAAI75uPKo6QgYhRmJk0J+TkoAAPjUR5QAz4gJj9SMBEoAAMAB204VqbjplOkYGKG5KZONnJcSAAA+xFKAt8xLpgQAABzyUeUR0xEwCnMpAQAAJ+yqPqajDZWmY2AU5rEcAABwAhsCvYdJAADAEewH8Jbc5CwFwsKMnJsSAAA+sq+2THn1J03HwCiYmgJIlAAA8BWWArzH1H4AiRIAAL6ysSLfdASMkqmPB0qUAADwjb8c369DdSdMx8AombpRkEQJAADfWFOy23QEjNL0+FRNiIg2dn5KAAD4wI7qYm1gKcBzTG4KlCgBAOALa0r2mI6AMTC5KVCiBACA5xU3ndKaUpYCvIhJAABgXNaU7lF3X6/pGBgDJgEAgDFr6mpnCuBR0+NTlRaTYDQDJQAAPOyt0t2qbGs0HQNjsCwr13QESgAAeNmaUjYEetWyzDmmI1ACAMCruDmQt12bnmM6AiUAALyKmwN51w2ZsxUTHmk6BiUAALxoTelubg7kYcsyze8HkCgBAOA5nb3dev7IR6ZjYByuSZ9pOoIkSgAAeM7zRz9SfkO56RgYo8kTUow+OfBMlAAA8JCS5hq9cGST6RgYh+UuWQqQKAEA4CkvHN2khq420zEwDldNmmE6whBKAAB4xJaqQr1WtM10DIwTJQAAMGovHGUZwOuuTc9RRmyi6RhDKAEA4AFvHtupTRVHTMfAOLlpCiBRAgDA9Vq7O/U8UwBfuCot23SEs1ACAMDlnj+6SYWNVaZjYJwmxSYyCQAAjNzWqkL96tBfTceAA5amz1JkINx0jLNQAgDApbp6e/TkwfdMx4BDVk6ZbzrCeSgBAOBSTx56T3trS03HgAOmxU/UysnzTMc4DyUAAFxofflhPZe/wXQMOGTl5PmKcNlSgEQJAADXaexq15MH15mOAQetnOy+pQCJEgAArvPkwXXKb6gwHQMOWTRxmmueGnguSgAAuMg7Zfv0cuEW0zHgIDduCBxECQAAl6hqb9STh/g0gN+4cUPgIEoAALjEkwffU2lzjekYcNDyrFzNTso0HeOCKAEA4ALP5K/Xm8d2mo4Bh7l1Q+AgSgAAGPZq0Vb92/6/mI4Bh8VHxuhmF+8HkCgBAGDU22V79fNdfzQdA0Fw8+T5SotJMB3joigBAGDInppS/XT7atMxECRu/lTAIEoAABjQ0NmmRz9+QT19vaajIAjcepvgc1ECAMCAr7//76rvbDUdA0Fy+/QlrrxN8LkoAQAQYl9575c63lJrOgaCJC4iSl/Ivsp0jBGhBABACD3y8QvKqz9pOgaC6AvZV2l6fKrpGCNCCQCAEHl8/zv68GSe6RgIsi/O8MYUQKIEAEBI/OLAuzwa2AJ3XHaFFqRMNR1jxCJMBwAAv3ts39t6/sgm0zEQAl/0yF6AQZQAAAiif9z9J54KaIlPZc3V9RmzTMcYFUoAAATJz3a+oTeKd5iOgRD5gof2AgyiBABAEPz3ba9qTeke0zEQIlemZWvV1EWmY4waJQAAHNTR262fbn9N7x4/YDoKQsgr9wU4FyUAABxS3dGsn25/TZsrC0xHQQjNSsrw1McCz0QJAAAHHGuu1k+3v6b9tcdNR0GIfTH7KoWHefMT95QAABinD07m6bF9b3MrYAtlxCZ5dilAogQAwLg8nfeBnji4znQMGPK1WUuVEj3BdIwxowQAwBicam/SY/ve1jtl+0xHgSFzk7N035wbTccYF0oAAIzS5soCPbbvbRU0VpqOAoPunbNM0eGRpmOMCyUAAEbh+SOb9Ni+t03HgGHLs3I9vRdgECUAAEagsatdj+17W388ttN0FLjAfXOWmY7gCEoAAFzCrupjemzf2zpYd8J0FLjAl2Zeo6UZs03HcAQlAAAu4pXCrXps39vq7O02HQUuMCEiWvfO9scUQKIEAMCwSptr9FTeB3qrdLfpKHCRe+cs06ykDNMxHEMJAIBzvFK4VU/lva/qjmbTUeAi2QmTfLMXYBAlAABOO1xfrqfy3tdfTx4yHQUudN+cZUqMijUdw1GUAACQ9Fz+Bj2V94FaezpNR4ELXZueo6/kXGc6huMoAQCstqv6mJ7K+0Cbq3jyHy7sXp8tAwyiBACwUk9fr36d94GeyvtA/eo3HQcudn/uCq2cPM90jKCgBACwzqaKI3oq7wPtrS01HQUutyTtMj28cJXpGEFDCQBgjdqOFj2bv0EvHN1kOgo84pGFqxQd7t9LpX//kwHAaT19fXqx8GO9WLBZ5a31puPAIx5eeJuuS88xHSOoKAEAfO2PJbv0UsFm5dWfNB0FHnJj5hw9NP8W0zGCjhIAwJfWlx/WiwUfa0tVoeko8Ji4iGg94uN9AGeiBADwlT01JXqxYLP+cny/6SjwqEcW3qaFE6eajhESlAAAvlDcdEovFmzWq0VbTUeBh62atsi39wQYDiUAgKfVdrToxYLNerHwY7V2c7c/jF16bKI1ywCDKAEAPIkd/3DawwtXaUbCJNMxQooSAMBTevr69Max7XqjeAc7/uGYe+fcqLtnXG06RshRAgB4QntPl944tkNvFO9QQWOl6TjwkZunzNePl9xpOoYRlAAArtbU1a7Xi7frjWM7VNpcYzoOfCY3OUv/97qvmY5hDCUAgCvVdrRodfE2/aF4h8rbGkzHgQ/FR0br/1z3VcVGRJmOYgwlAICrVLY1aHXxwJp/TUez6TjwsX+89iuak5RpOoZRlAAArlDWUqvXi7fr9eLtaupqNx0HPvfDxZ/TLVMWmI5hHCUAgFFFTaf0evE2vV60Q+29XabjwAJfzble38xdbjqGK1ACABiR31Cu1cXb9XrRdvX295mOA0vckDlb//OqL5qO4RoB0wEA2Ck8LKBwBRQICzMdBZaYFp+qp1c8YDqGq4T19/f3mw4BwF4nW+u0umi7VhdvV2NXm+k48LGDX/kn0xFchxIAwBXqO1u1uni7VhdtUwUfCYTDKADDowQAcJWuvh69VrRNq4u2q6ipynQc+AAF4MIoAQBc6w/Hdmh10XYdqDtuOgo8igJwcZQAAK73l+P7tbpou7adKjQdBR5CAbg0SgAAz9hYka/Vxdv14ck801HgchSAkaEEAPCcndXHtLp4m94u3Ws6ClyIAjBylAAAnpVXf1Kvn/5EAX+RQaIAjBYlAIDnHW+p1atFW7W6aLtaezpNx4EhFIDRowQA8I36zla9XLhFq4u2qZonEFqFAjA2lAAAvtPT16ffF3yk1cXbVdpcYzoOgmhmYrre+sx/NR3DsygBAHzttaJtWl28TYfry01HgcM+n32l/ve1XzEdw9MoAQCssLZ0j1YXb9eu6mOmo8ABP73yC/r6rKWmY3geJQCAVT44mafVxdu0qeKI6SgYo6dXPKAbMmebjuELlAAAVtpRXaxXCrfq3eP7TUfBCKXHJuqpFd/S7KRM01F8gxIAwGr5DeV6sWCz3jy203QUXMQtUxboH675kpKj4kxH8RVKAABIOtFap98d/VivF29TZ2+P6Tg4wz2zb9D/uOLzpmP4EiUAAM7Q2NWm3x7ZpNeLt6u+s9V0HOt9f9Gn9eC8laZj+BYlAACG0dffr2fzN+j14m062VpvOo514iNj9JMr7tQXs68yHcXXKAEAcAkvF27Ra0XbVNBYaTqKFZZl5uqRRau0IGWK6Si+RwkAgBFaW7pHLxdu0b7aMtNRfOvhhav00PybTcewBiUAAEZpfflhvVjwsbZUFZqO4huLU6fr0UWrdF36LNNRrEIJAIAx2lV9TC8c/UjvnzxkOoqnfTN3uR5ZuErR4ZGmo1iHEgAA43SkoUK/PbJRa0r3mI7iKTmJ6Xpk4SrdOnWh6SjWogQAgEPKW+v1bP4GrS7epj7+ar2oL828Ro8sXKW0mATTUaxGCQAAhzV3d+iZw+v1atFWtXR3mI7jKumxiXpk4SrdNeNq01EgSgAABE2/pGcPr9dLhZt1qr3JdBzjVk1dpEcWrdKMhEmmo+A0SgAAhMArRVv1+6Mfq6S52nSUkMuKS9b9cz+le3j0r+tQAgAghN4u26vnj2xSXv1J01FC4p5ZN+hbc1coMy7ZdBQMgxIAAAZsrMjXc/kbtbO62HSUoFiaMVvfmrtCSzNmm46Ci6AEAIBBu2tK9Ozh9dpQkW86iiMY/XsLJQAAXKCgsVLP5K/X26V7TUcZM0b/3kMJAAAXqWxr0DP5G/RK4RbTUUaM0b93UQIAwIVaujv1bP56/e7oR+ro7TYdZ1iM/r2PEgAALvds/gY9f2ST6jpbTEcZwujfHygBAOARrxVt03P5G3Sitc5YhuVZubpvzjJG/z5BCQAAj3mnbJ+eyV+vIw0VITvnVZNm6Ouzluoz0y4P2TkRfJQAAPCoTRVH9Gz+eu2sPha0c8xNnqyvz1qqL828JmjngDmUAADwuL21pXr28Hp9WH7YsfecFp+qr89aqvvmLHPsPeE+lAAA8Imipio9c3i91pTuGfN7TIyO19dnL9V359/iYDK4FSUAAHymqr1Jz+av10sFm0f8Z6LDI3XvnBv16MJVCoQFgpgObkIJAACfauvp0jP56/Xc4fXq6e+74O+7b84yPbJwlWIjokKYDm5ACQAAC/zmyEY9c3i9Grvaho59Ned6PbJolZKj4gwmg0mUAACwyOvF27W3tkyPLlyl9NhE03FgGCUAAABL/X/v3GSvaEJOYQAAAABJRU5ErkJggg==;" parent="PUX6jmoBfE5CQSiI87-m-18" vertex="1">
          <mxGeometry x="9.340000000000003" y="10" width="32.83" height="40" as="geometry" />
        </mxCell>
        <mxCell id="CVTRG9gTyBJ6a0DyhJM1-11" value="" style="shape=image;verticalLabelPosition=bottom;labelBackgroundColor=default;verticalAlign=top;aspect=fixed;imageAspect=0;image=https://www.vectorlogo.zone/logos/gunicorn/gunicorn-icon.svg;" vertex="1" parent="PUX6jmoBfE5CQSiI87-m-18">
          <mxGeometry x="120" y="-25.23" width="45.23" height="45.23" as="geometry" />
        </mxCell>
        <mxCell id="PUX6jmoBfE5CQSiI87-m-22" value="" style="strokeColor=#dddddd;shadow=1;strokeWidth=1;rounded=1;absoluteArcSize=1;arcSize=2;" parent="PUX6jmoBfE5CQSiI87-m-1" vertex="1">
          <mxGeometry x="566" y="200" width="166" height="60" as="geometry" />
        </mxCell>
        <mxCell id="PUX6jmoBfE5CQSiI87-m-23" value="&lt;font color=&quot;#000000&quot;&gt;Redis&lt;/font&gt;&lt;br&gt;Cache / Broker" style="sketch=0;dashed=0;connectable=0;html=1;fillColor=#5184F3;strokeColor=none;shape=mxgraph.gcp2.hexIcon;prIcon=app_engine;part=1;labelPosition=right;verticalLabelPosition=middle;align=left;verticalAlign=middle;spacingLeft=5;fontColor=#999999;fontSize=12;" parent="PUX6jmoBfE5CQSiI87-m-22" vertex="1">
          <mxGeometry y="0.5" width="44" height="39" relative="1" as="geometry">
            <mxPoint x="5" y="-19.5" as="offset" />
          </mxGeometry>
        </mxCell>
        <mxCell id="PUX6jmoBfE5CQSiI87-m-24" value="" style="sketch=0;aspect=fixed;html=1;points=[];align=center;image;fontSize=18;image=img/lib/mscae/Cache_Redis_Product.svg;fontColor=#000000;" parent="PUX6jmoBfE5CQSiI87-m-22" vertex="1">
          <mxGeometry x="5.5800000000000125" y="12.190000000000055" width="42.41" height="35.62" as="geometry" />
        </mxCell>
        <mxCell id="PUX6jmoBfE5CQSiI87-m-35" value="" style="strokeColor=#dddddd;shadow=1;strokeWidth=1;rounded=1;absoluteArcSize=1;arcSize=2;" parent="PUX6jmoBfE5CQSiI87-m-1" vertex="1">
          <mxGeometry x="96" y="200" width="165.23" height="60" as="geometry" />
        </mxCell>
        <mxCell id="PUX6jmoBfE5CQSiI87-m-36" value="&lt;font color=&quot;#000000&quot;&gt;Zabbix Server&lt;/font&gt;&lt;br&gt;Monitoring" style="sketch=0;dashed=0;connectable=0;html=1;fillColor=#5184F3;strokeColor=none;shape=mxgraph.gcp2.hexIcon;prIcon=app_engine;part=1;labelPosition=right;verticalLabelPosition=middle;align=left;verticalAlign=middle;spacingLeft=5;fontColor=#999999;fontSize=12;" parent="PUX6jmoBfE5CQSiI87-m-35" vertex="1">
          <mxGeometry y="0.5" width="44" height="39" relative="1" as="geometry">
            <mxPoint x="5" y="-19.5" as="offset" />
          </mxGeometry>
        </mxCell>
        <mxCell id="PUX6jmoBfE5CQSiI87-m-38" value="" style="shape=image;verticalLabelPosition=bottom;labelBackgroundColor=default;verticalAlign=top;aspect=fixed;imageAspect=0;image=https://www.vectorlogo.zone/logos/zabbix/zabbix-icon.svg;" parent="PUX6jmoBfE5CQSiI87-m-35" vertex="1">
          <mxGeometry x="9.340000000000003" y="10" width="40" height="40" as="geometry" />
        </mxCell>
        <mxCell id="PUX6jmoBfE5CQSiI87-m-42" value="" style="strokeColor=#dddddd;shadow=1;strokeWidth=1;rounded=1;absoluteArcSize=1;arcSize=2;" parent="PUX6jmoBfE5CQSiI87-m-1" vertex="1">
          <mxGeometry x="96" y="300" width="165.23" height="60" as="geometry" />
        </mxCell>
        <mxCell id="PUX6jmoBfE5CQSiI87-m-43" value="&lt;font color=&quot;#000000&quot;&gt;Elastic&lt;/font&gt;&lt;br&gt;LogServer" style="sketch=0;dashed=0;connectable=0;html=1;fillColor=#5184F3;strokeColor=none;shape=mxgraph.gcp2.hexIcon;prIcon=app_engine;part=1;labelPosition=right;verticalLabelPosition=middle;align=left;verticalAlign=middle;spacingLeft=5;fontColor=#999999;fontSize=12;" parent="PUX6jmoBfE5CQSiI87-m-42" vertex="1">
          <mxGeometry y="0.5" width="44" height="39" relative="1" as="geometry">
            <mxPoint x="5" y="-19.5" as="offset" />
          </mxGeometry>
        </mxCell>
        <mxCell id="PUX6jmoBfE5CQSiI87-m-45" value="" style="shape=image;verticalLabelPosition=bottom;labelBackgroundColor=default;verticalAlign=top;aspect=fixed;imageAspect=0;image=https://www.vectorlogo.zone/logos/elastic/elastic-icon.svg;" parent="PUX6jmoBfE5CQSiI87-m-42" vertex="1">
          <mxGeometry x="4.340000000000003" y="7.5" width="45" height="45" as="geometry" />
        </mxCell>
        <mxCell id="CVTRG9gTyBJ6a0DyhJM1-3" value="" style="group" vertex="1" connectable="0" parent="PUX6jmoBfE5CQSiI87-m-1">
          <mxGeometry x="249.99999999999997" y="420" width="165.23000000000002" height="60" as="geometry" />
        </mxCell>
        <mxCell id="CVTRG9gTyBJ6a0DyhJM1-4" value="" style="strokeColor=#dddddd;shadow=1;strokeWidth=1;rounded=1;absoluteArcSize=1;arcSize=2;" vertex="1" parent="CVTRG9gTyBJ6a0DyhJM1-3">
          <mxGeometry width="165.23" height="60" as="geometry" />
        </mxCell>
        <mxCell id="CVTRG9gTyBJ6a0DyhJM1-8" value="&amp;nbsp; Flask / python&lt;br&gt;&amp;nbsp; &lt;font color=&quot;#808080&quot;&gt;Device connector&lt;/font&gt;" style="shape=image;verticalLabelPosition=middle;labelBackgroundColor=default;verticalAlign=middle;aspect=fixed;imageAspect=0;image=https://www.vectorlogo.zone/logos/pocoo_flask/pocoo_flask-icon.svg;labelPosition=right;align=left;html=1;" vertex="1" parent="CVTRG9gTyBJ6a0DyhJM1-3">
          <mxGeometry x="9.999999999999973" y="7" width="46" height="46" as="geometry" />
        </mxCell>
        <mxCell id="CVTRG9gTyBJ6a0DyhJM1-9" value="" style="shape=image;verticalLabelPosition=bottom;labelBackgroundColor=default;verticalAlign=top;aspect=fixed;imageAspect=0;image=https://www.vectorlogo.zone/logos/gunicorn/gunicorn-icon.svg;" vertex="1" parent="CVTRG9gTyBJ6a0DyhJM1-3">
          <mxGeometry x="120" y="-25.23" width="45.23" height="45.23" as="geometry" />
        </mxCell>
        <mxCell id="CVTRG9gTyBJ6a0DyhJM1-17" value="10.100.40.56" style="sketch=0;points=[[0.015,0.015,0],[0.985,0.015,0],[0.985,0.985,0],[0.015,0.985,0],[0.25,0,0],[0.5,0,0],[0.75,0,0],[1,0.25,0],[1,0.5,0],[1,0.75,0],[0.75,1,0],[0.5,1,0],[0.25,1,0],[0,0.75,0],[0,0.5,0],[0,0.25,0]];verticalLabelPosition=bottom;html=1;verticalAlign=top;aspect=fixed;align=center;pointerEvents=1;shape=mxgraph.cisco19.rect;prIcon=l2_switch;fillColor=#FAFAFA;strokeColor=#005073;" vertex="1" parent="PUX6jmoBfE5CQSiI87-m-1">
          <mxGeometry x="261.23" y="540" width="50" height="50" as="geometry" />
        </mxCell>
        <mxCell id="CVTRG9gTyBJ6a0DyhJM1-18" value="&lt;span style=&quot;color: rgb(0, 0, 0); font-family: Helvetica; font-size: 12px; font-style: normal; font-variant-ligatures: normal; font-variant-caps: normal; font-weight: 400; letter-spacing: normal; orphans: 2; text-align: center; text-indent: 0px; text-transform: none; widows: 2; word-spacing: 0px; -webkit-text-stroke-width: 0px; background-color: rgb(255, 255, 255); text-decoration-thickness: initial; text-decoration-style: initial; text-decoration-color: initial; float: none; display: inline !important;&quot;&gt;10.100.90.56&lt;/span&gt;" style="sketch=0;points=[[0.015,0.015,0],[0.985,0.015,0],[0.985,0.985,0],[0.015,0.985,0],[0.25,0,0],[0.5,0,0],[0.75,0,0],[1,0.25,0],[1,0.5,0],[1,0.75,0],[0.75,1,0],[0.5,1,0],[0.25,1,0],[0,0.75,0],[0,0.5,0],[0,0.25,0]];verticalLabelPosition=bottom;html=1;verticalAlign=top;aspect=fixed;align=center;pointerEvents=1;shape=mxgraph.cisco19.rect;prIcon=l3_switch;fillColor=#FAFAFA;strokeColor=#005073;" vertex="1" parent="PUX6jmoBfE5CQSiI87-m-1">
          <mxGeometry x="360" y="540" width="50" height="50" as="geometry" />
        </mxCell>
        <mxCell id="CVTRG9gTyBJ6a0DyhJM1-27" style="edgeStyle=orthogonalEdgeStyle;rounded=0;orthogonalLoop=1;jettySize=auto;html=1;exitX=0.75;exitY=1;exitDx=0;exitDy=0;entryX=0.25;entryY=0;entryDx=0;entryDy=0;entryPerimeter=0;" edge="1" parent="PUX6jmoBfE5CQSiI87-m-1" target="CVTRG9gTyBJ6a0DyhJM1-18">
          <mxGeometry relative="1" as="geometry">
            <mxPoint x="384.9225000000001" y="480" as="sourcePoint" />
            <Array as="points">
              <mxPoint x="385" y="490" />
              <mxPoint x="373" y="490" />
            </Array>
          </mxGeometry>
        </mxCell>
        <mxCell id="CVTRG9gTyBJ6a0DyhJM1-28" style="edgeStyle=orthogonalEdgeStyle;rounded=0;orthogonalLoop=1;jettySize=auto;html=1;exitX=0.75;exitY=1;exitDx=0;exitDy=0;entryX=0.5;entryY=0;entryDx=0;entryDy=0;entryPerimeter=0;" edge="1" parent="PUX6jmoBfE5CQSiI87-m-1">
          <mxGeometry relative="1" as="geometry">
            <mxPoint x="384.7625000000001" y="480" as="sourcePoint" />
            <mxPoint x="384.84" y="540" as="targetPoint" />
          </mxGeometry>
        </mxCell>
        <mxCell id="CVTRG9gTyBJ6a0DyhJM1-29" style="edgeStyle=orthogonalEdgeStyle;rounded=0;orthogonalLoop=1;jettySize=auto;html=1;exitX=0.75;exitY=1;exitDx=0;exitDy=0;entryX=0.75;entryY=0;entryDx=0;entryDy=0;entryPerimeter=0;" edge="1" parent="PUX6jmoBfE5CQSiI87-m-1" target="CVTRG9gTyBJ6a0DyhJM1-18">
          <mxGeometry relative="1" as="geometry">
            <mxPoint x="384.9225000000001" y="480" as="sourcePoint" />
            <Array as="points">
              <mxPoint x="385" y="490" />
              <mxPoint x="398" y="490" />
            </Array>
          </mxGeometry>
        </mxCell>
        <mxCell id="CVTRG9gTyBJ6a0DyhJM1-31" style="edgeStyle=orthogonalEdgeStyle;rounded=0;orthogonalLoop=1;jettySize=auto;html=1;exitX=0.75;exitY=1;exitDx=0;exitDy=0;entryX=0.25;entryY=0;entryDx=0;entryDy=0;entryPerimeter=0;" edge="1" parent="PUX6jmoBfE5CQSiI87-m-1">
          <mxGeometry relative="1" as="geometry">
            <mxPoint x="285.73" y="480" as="sourcePoint" />
            <mxPoint x="273.73" y="540" as="targetPoint" />
            <Array as="points">
              <mxPoint x="285.73" y="490" />
              <mxPoint x="273.73" y="490" />
            </Array>
          </mxGeometry>
        </mxCell>
        <mxCell id="CVTRG9gTyBJ6a0DyhJM1-32" style="edgeStyle=orthogonalEdgeStyle;rounded=0;orthogonalLoop=1;jettySize=auto;html=1;exitX=0.75;exitY=1;exitDx=0;exitDy=0;entryX=0.5;entryY=0;entryDx=0;entryDy=0;entryPerimeter=0;" edge="1" parent="PUX6jmoBfE5CQSiI87-m-1">
          <mxGeometry relative="1" as="geometry">
            <mxPoint x="285.73" y="480" as="sourcePoint" />
            <mxPoint x="285.73" y="540" as="targetPoint" />
          </mxGeometry>
        </mxCell>
        <mxCell id="CVTRG9gTyBJ6a0DyhJM1-33" style="edgeStyle=orthogonalEdgeStyle;rounded=0;orthogonalLoop=1;jettySize=auto;html=1;exitX=0.75;exitY=1;exitDx=0;exitDy=0;entryX=0.75;entryY=0;entryDx=0;entryDy=0;entryPerimeter=0;" edge="1" parent="PUX6jmoBfE5CQSiI87-m-1">
          <mxGeometry relative="1" as="geometry">
            <mxPoint x="285.73" y="480" as="sourcePoint" />
            <mxPoint x="298.73" y="540" as="targetPoint" />
            <Array as="points">
              <mxPoint x="285.73" y="490" />
              <mxPoint x="298.73" y="490" />
            </Array>
          </mxGeometry>
        </mxCell>
        <mxCell id="CVTRG9gTyBJ6a0DyhJM1-34" value="Sessions&lt;br&gt;Pool" style="text;html=1;align=center;verticalAlign=middle;resizable=0;points=[];autosize=1;strokeColor=none;fillColor=none;" vertex="1" parent="PUX6jmoBfE5CQSiI87-m-1">
          <mxGeometry x="297.62" y="493" width="70" height="40" as="geometry" />
        </mxCell>
        <mxCell id="CVTRG9gTyBJ6a0DyhJM1-42" style="edgeStyle=orthogonalEdgeStyle;rounded=1;orthogonalLoop=1;jettySize=auto;html=1;exitX=0.5;exitY=1;exitDx=0;exitDy=0;entryX=0.5;entryY=0;entryDx=0;entryDy=0;startArrow=oval;startFill=1;endArrow=oval;endFill=1;strokeColor=#3399FF;" edge="1" parent="PUX6jmoBfE5CQSiI87-m-1" source="CVTRG9gTyBJ6a0DyhJM1-37" target="PUX6jmoBfE5CQSiI87-m-4">
          <mxGeometry relative="1" as="geometry">
            <Array as="points">
              <mxPoint x="763" y="400" />
              <mxPoint x="573" y="400" />
            </Array>
          </mxGeometry>
        </mxCell>
        <mxCell id="CVTRG9gTyBJ6a0DyhJM1-37" value="" style="strokeColor=#dddddd;shadow=1;strokeWidth=1;rounded=1;absoluteArcSize=1;arcSize=2;" vertex="1" parent="PUX6jmoBfE5CQSiI87-m-1">
          <mxGeometry x="680" y="300" width="165.23" height="60" as="geometry" />
        </mxCell>
        <mxCell id="CVTRG9gTyBJ6a0DyhJM1-38" value="&lt;font color=&quot;#000000&quot;&gt;CeleryBeat / python&lt;/font&gt;&lt;br&gt;Task Scheduler" style="sketch=0;dashed=0;connectable=0;html=1;fillColor=#5184F3;strokeColor=none;shape=mxgraph.gcp2.hexIcon;prIcon=app_engine;part=1;labelPosition=right;verticalLabelPosition=middle;align=left;verticalAlign=middle;spacingLeft=5;fontColor=#999999;fontSize=12;" vertex="1" parent="CVTRG9gTyBJ6a0DyhJM1-37">
          <mxGeometry y="0.5" width="44" height="39" relative="1" as="geometry">
            <mxPoint x="5" y="-19.5" as="offset" />
          </mxGeometry>
        </mxCell>
        <mxCell id="CVTRG9gTyBJ6a0DyhJM1-39" value="" style="shape=image;verticalLabelPosition=bottom;labelBackgroundColor=default;verticalAlign=top;aspect=fixed;imageAspect=0;image=https://codeguida.com/media/post_title/celery-logo.png;fontSize=18;" vertex="1" parent="CVTRG9gTyBJ6a0DyhJM1-37">
          <mxGeometry x="6.7900000000000205" y="10" width="40" height="40" as="geometry" />
        </mxCell>
        <mxCell id="CVTRG9gTyBJ6a0DyhJM1-40" value="" style="shape=image;verticalLabelPosition=bottom;labelBackgroundColor=default;verticalAlign=top;aspect=fixed;imageAspect=0;image=https://www.ansaroo.com/images/550_59/5926882f525c0dca4f72b6c67de7ccf0.jpeg;clipPath=inset(7.14% 31% 10.71% 30.33%);" vertex="1" parent="CVTRG9gTyBJ6a0DyhJM1-37">
          <mxGeometry x="8.460000000000036" y="10" width="38.33" height="38" as="geometry" />
        </mxCell>
        <mxCell id="CVTRG9gTyBJ6a0DyhJM1-43" value="" style="strokeColor=#dddddd;shadow=1;strokeWidth=1;rounded=1;absoluteArcSize=1;arcSize=2;" vertex="1" parent="PUX6jmoBfE5CQSiI87-m-1">
          <mxGeometry x="566.39" y="90" width="165.23" height="60" as="geometry" />
        </mxCell>
        <mxCell id="CVTRG9gTyBJ6a0DyhJM1-44" value="&lt;font color=&quot;#000000&quot;&gt;Flower / python&lt;/font&gt;&lt;br&gt;Celery monitoring" style="sketch=0;dashed=0;connectable=0;html=1;fillColor=#5184F3;strokeColor=none;shape=mxgraph.gcp2.hexIcon;prIcon=app_engine;part=1;labelPosition=right;verticalLabelPosition=middle;align=left;verticalAlign=middle;spacingLeft=5;fontColor=#999999;fontSize=12;" vertex="1" parent="CVTRG9gTyBJ6a0DyhJM1-43">
          <mxGeometry y="0.5" width="44" height="39" relative="1" as="geometry">
            <mxPoint x="5" y="-19.5" as="offset" />
          </mxGeometry>
        </mxCell>
        <mxCell id="CVTRG9gTyBJ6a0DyhJM1-45" value="" style="shape=image;verticalLabelPosition=bottom;labelBackgroundColor=default;verticalAlign=top;aspect=fixed;imageAspect=0;image=https://codeguida.com/media/post_title/celery-logo.png;fontSize=18;" vertex="1" parent="CVTRG9gTyBJ6a0DyhJM1-43">
          <mxGeometry x="6.7900000000000205" y="10" width="40" height="40" as="geometry" />
        </mxCell>
        <mxCell id="CVTRG9gTyBJ6a0DyhJM1-46" value="" style="shape=image;verticalLabelPosition=bottom;labelBackgroundColor=default;verticalAlign=top;aspect=fixed;imageAspect=0;image=https://www.ansaroo.com/images/550_59/5926882f525c0dca4f72b6c67de7ccf0.jpeg;clipPath=inset(7.14% 31% 10.71% 30.33%);" vertex="1" parent="CVTRG9gTyBJ6a0DyhJM1-43">
          <mxGeometry x="8.460000000000036" y="10" width="38.33" height="38" as="geometry" />
        </mxCell>
      </root>
    </mxGraphModel>
  </diagram>
</mxfile>
